<?xml version="1.0" encoding="utf-8"?>
<!-- Generator: Adobe Illustrator 16.0.0, SVG Export Plug-In . SVG Version: 6.00 Build 0)  -->
<!DOCTYPE svg PUBLIC "-//W3C//DTD SVG 1.1//EN" "http://www.w3.org/Graphics/SVG/1.1/DTD/svg11.dtd">
<svg version="1.1" id="Layer_1" xmlns="http://www.w3.org/2000/svg" xmlns:xlink="http://www.w3.org/1999/xlink" x="0px" y="0px"
	 width="464.705px" height="213.295px" viewBox="0 0 464.705 213.295" enable-background="new 0 0 464.705 213.295"
	 xml:space="preserve">
<g id="Your_Design">
	<g id="CMSC">
		
			<rect x="249.146" y="132.603" fill="none" stroke="#0000FF" stroke-width="0.0283" stroke-miterlimit="10" width="39.687" height="34.75"/>
		
			<rect x="184.334" y="130.604" fill="none" stroke="#0000FF" stroke-width="0.0283" stroke-miterlimit="10" width="36.499" height="39.688"/>
		
			<rect x="126.085" y="131.095" fill="none" stroke="#0000FF" stroke-width="0.0283" stroke-miterlimit="10" width="36.249" height="39.686"/>
		
			<rect x="42.378" y="46.958" fill="none" stroke="#0000FF" stroke-width="0.0283" stroke-miterlimit="10" width="39.685" height="72.895"/>
		
			<rect x="296.332" y="132.603" fill="none" stroke="#0000FF" stroke-width="0.0283" stroke-miterlimit="10" width="39.684" height="34.75"/>
		
			<rect x="343.737" y="132.603" fill="none" stroke="#0000FF" stroke-width="0.0283" stroke-miterlimit="10" width="39.686" height="34.75"/>
		<circle fill="none" stroke="#0000FF" stroke-width="0.0283" stroke-miterlimit="10" cx="97.336" cy="125.997" r="4.605"/>
		<circle fill="none" stroke="#0000FF" stroke-width="0.0283" stroke-miterlimit="10" cx="97.336" cy="43.852" r="4.605"/>
		<circle fill="none" stroke="#0000FF" stroke-width="0.0283" stroke-miterlimit="10" cx="403.58" cy="43.852" r="4.605"/>
		<circle fill="none" stroke="#0000FF" stroke-width="0.0283" stroke-miterlimit="10" cx="434.353" cy="42.352" r="4.606"/>
		<circle fill="none" stroke="#0000FF" stroke-width="0.0283" stroke-miterlimit="10" cx="403.455" cy="126.023" r="4.604"/>
		<circle fill="none" stroke="#0000FF" stroke-width="0.0283" stroke-miterlimit="10" cx="433.83" cy="175.706" r="4.605"/>
		<circle fill="none" stroke="#0000FF" stroke-width="0.0283" stroke-miterlimit="10" cx="32.962" cy="175.706" r="4.605"/>
		<circle fill="none" stroke="#0000FF" stroke-width="0.0283" stroke-miterlimit="10" cx="32.884" cy="42.008" r="4.605"/>
		
			<rect x="136.272" y="59.024" fill="none" stroke="#0000FF" stroke-width="0.0283" stroke-miterlimit="10" width="233.801" height="45.354"/>
		
			<rect x="92.73" y="164.368" fill="none" stroke="#0000FF" stroke-width="0.0283" stroke-miterlimit="10" width="25.511" height="22.678"/>
		<circle fill="none" stroke="#0000FF" stroke-width="0.0283" stroke-miterlimit="10" cx="242.083" cy="180.937" r="3.461"/>
		
			<rect x="263.823" y="126.024" fill="none" stroke="#0000FF" stroke-width="0.0283" stroke-miterlimit="10" width="11.094" height="5.656"/>
		
			<rect x="358.412" y="126.024" fill="none" stroke="#0000FF" stroke-width="0.0283" stroke-miterlimit="10" width="11.002" height="5.656"/>
		<rect x="256.286" y="48.247" fill="#808080" width="5.962" height="1.134"/>
		<rect x="277.034" y="128.286" fill="#808080" width="26.473" height="1.135"/>
		<rect x="208.138" y="48.246" fill="#808080" width="36.949" height="1.136"/>
		<rect x="328.7" y="128.853" fill="#808080" width="26.471" height="1.135"/>
		<rect x="143.124" y="48.246" fill="#808080" width="36.948" height="1.136"/>
		<rect x="300.911" y="48.247" fill="#808080" width="7.064" height="1.134"/>
		<rect x="315.351" y="48.247" fill="#808080" width="8.563" height="1.134"/>
		<rect x="357.743" y="48.247" fill="#808080" width="9.729" height="1.134"/>
		<g>
			<path fill="none" stroke="#00FF00" stroke-width="0.0283" stroke-miterlimit="10" d="M88.066,179.532
				c-0.064,0.084-0.097,0.205-0.097,0.363c0,0.205,0.097,0.377,0.29,0.514c0.193,0.141,0.457,0.207,0.791,0.207h1.529v0.48h-3v-0.48
				h0.618v-0.012c-0.211-0.068-0.375-0.174-0.493-0.313c-0.118-0.141-0.178-0.299-0.178-0.473c0-0.125,0.014-0.223,0.041-0.287
				H88.066L88.066,179.532z"/>
			<path fill="none" stroke="#00FF00" stroke-width="0.0283" stroke-miterlimit="10" d="M89.2,176.601v2.117
				c0.334-0.008,0.592-0.098,0.773-0.27s0.272-0.408,0.272-0.709c0-0.338-0.111-0.648-0.334-0.934h0.451
				c0.191,0.266,0.287,0.613,0.287,1.047c0,0.424-0.137,0.758-0.408,0.998c-0.273,0.242-0.656,0.363-1.15,0.363
				c-0.467,0-0.847-0.133-1.141-0.395c-0.294-0.268-0.441-0.596-0.441-0.986c0-0.393,0.127-0.695,0.381-0.91
				s0.606-0.322,1.058-0.322H89.2z M88.793,177.093c-0.277,0.002-0.493,0.068-0.647,0.199c-0.154,0.133-0.231,0.314-0.231,0.551
				c0,0.227,0.081,0.418,0.243,0.576s0.374,0.256,0.636,0.293L88.793,177.093L88.793,177.093z"/>
			<path fill="none" stroke="#00FF00" stroke-width="0.0283" stroke-miterlimit="10" d="M90.472,176.056h-0.516
				c0.193-0.262,0.29-0.551,0.29-0.863c0-0.424-0.141-0.635-0.422-0.635c-0.08,0-0.148,0.02-0.203,0.057
				c-0.057,0.035-0.105,0.084-0.148,0.145c-0.043,0.063-0.081,0.133-0.115,0.217c-0.034,0.082-0.07,0.174-0.107,0.27
				c-0.053,0.133-0.105,0.25-0.16,0.35c-0.053,0.104-0.113,0.188-0.182,0.252c-0.066,0.068-0.144,0.119-0.229,0.152
				c-0.086,0.035-0.187,0.053-0.302,0.053c-0.141,0-0.266-0.033-0.373-0.098c-0.109-0.064-0.199-0.15-0.273-0.258
				c-0.072-0.107-0.128-0.23-0.165-0.367c-0.037-0.139-0.056-0.279-0.056-0.428c0-0.26,0.045-0.492,0.135-0.697h0.486
				c-0.145,0.223-0.217,0.477-0.217,0.764c0,0.09,0.01,0.17,0.031,0.242c0.02,0.072,0.049,0.135,0.086,0.186
				c0.037,0.055,0.082,0.094,0.133,0.121c0.053,0.027,0.109,0.043,0.172,0.043c0.078,0,0.144-0.016,0.196-0.043
				c0.053-0.027,0.1-0.068,0.141-0.125c0.041-0.055,0.078-0.121,0.111-0.197c0.033-0.078,0.069-0.168,0.108-0.268
				c0.051-0.133,0.104-0.252,0.156-0.357c0.055-0.104,0.115-0.193,0.182-0.27c0.068-0.074,0.146-0.133,0.233-0.172
				c0.088-0.041,0.192-0.061,0.313-0.061c0.148,0,0.277,0.031,0.387,0.098c0.109,0.066,0.2,0.152,0.272,0.264
				c0.072,0.109,0.126,0.234,0.161,0.377c0.035,0.145,0.053,0.293,0.053,0.449C90.65,175.562,90.591,175.829,90.472,176.056z"/>
			<path fill="none" stroke="#00FF00" stroke-width="0.0283" stroke-miterlimit="10" d="M89.2,170.917v2.117
				c0.334-0.008,0.592-0.1,0.773-0.271s0.272-0.406,0.272-0.709c0-0.338-0.111-0.646-0.334-0.932h0.451
				c0.191,0.264,0.287,0.611,0.287,1.047c0,0.424-0.137,0.756-0.408,0.998c-0.273,0.242-0.656,0.363-1.15,0.363
				c-0.467,0-0.847-0.133-1.141-0.396c-0.294-0.268-0.441-0.594-0.441-0.986s0.127-0.695,0.381-0.91s0.606-0.322,1.058-0.322H89.2
				V170.917z M88.793,171.409c-0.277,0.002-0.493,0.068-0.647,0.199c-0.154,0.133-0.231,0.314-0.231,0.551
				c0,0.227,0.081,0.418,0.243,0.576s0.374,0.256,0.636,0.293L88.793,171.409L88.793,171.409z"/>
			<path fill="none" stroke="#00FF00" stroke-width="0.0283" stroke-miterlimit="10" d="M90.551,168.798
				c0.063,0.113,0.094,0.264,0.094,0.447c0,0.525-0.293,0.789-0.879,0.789h-1.775v0.516h-0.41v-0.516h-0.732l-0.155-0.48h0.888
				v-0.756h0.41v0.756h1.69c0.201,0,0.345-0.033,0.431-0.104c0.086-0.068,0.129-0.182,0.129-0.34c0-0.121-0.033-0.227-0.1-0.313
				H90.551L90.551,168.798z"/>
		</g>
		<g>
			<path fill="#808080" d="M262.883,179.507v3.176h-0.984v-8.402h2.31c0.897,0,1.597,0.219,2.09,0.654
				c0.494,0.439,0.74,1.057,0.74,1.854s-0.272,1.449-0.821,1.957c-0.55,0.508-1.291,0.762-2.226,0.762H262.883L262.883,179.507z
				 M262.883,175.171v3.443h1.031c0.68,0,1.197-0.154,1.557-0.465c0.357-0.313,0.535-0.75,0.535-1.314
				c0-1.109-0.656-1.664-1.969-1.664H262.883z"/>
			<path fill="#808080" d="M274.643,182.683h-1.172l-1.406-2.355c-0.129-0.219-0.254-0.404-0.375-0.561
				c-0.12-0.154-0.245-0.279-0.373-0.377c-0.127-0.098-0.264-0.17-0.409-0.215s-0.312-0.066-0.494-0.066h-0.81v3.574h-0.983v-8.402
				h2.508c0.367,0,0.705,0.045,1.017,0.139c0.313,0.092,0.58,0.23,0.811,0.418c0.229,0.189,0.406,0.422,0.535,0.699
				c0.129,0.279,0.193,0.605,0.193,0.98c0,0.293-0.045,0.563-0.133,0.807c-0.089,0.244-0.214,0.463-0.375,0.652
				c-0.162,0.191-0.355,0.355-0.587,0.49c-0.229,0.135-0.483,0.238-0.77,0.313v0.023c0.141,0.063,0.262,0.133,0.364,0.213
				c0.104,0.08,0.203,0.176,0.297,0.285c0.095,0.107,0.187,0.232,0.277,0.371c0.092,0.139,0.193,0.301,0.309,0.482L274.643,182.683z
				 M269.604,175.171v3.047h1.336c0.246,0,0.474-0.037,0.683-0.111s0.392-0.182,0.543-0.318c0.151-0.139,0.271-0.311,0.356-0.51
				c0.084-0.201,0.129-0.428,0.129-0.678c0-0.449-0.146-0.801-0.438-1.053s-0.713-0.377-1.264-0.377H269.604z"/>
			<path fill="#808080" d="M277.602,174.28v0.844h-0.819v6.715h0.819v0.844h-2.625v-0.844h0.818v-6.715h-0.818v-0.844H277.602z"/>
		</g>
		<g>
			<path fill="#808080" d="M359.043,178.858c0,2.357-1.063,3.539-3.192,3.539c-2.039,0-3.06-1.137-3.06-3.404v-5.141h0.984v5.074
				c0,1.725,0.727,2.584,2.18,2.584c1.402,0,2.104-0.832,2.104-2.496v-5.162h0.983V178.858L359.043,178.858z"/>
			<path fill="#808080" d="M367.912,182.255h-1.207l-4.322-6.697c-0.108-0.168-0.198-0.344-0.27-0.525h-0.035
				c0.031,0.18,0.047,0.563,0.047,1.152v6.07h-0.983v-8.402h1.276l4.205,6.594c0.176,0.271,0.289,0.461,0.34,0.563h0.023
				c-0.039-0.242-0.06-0.654-0.06-1.236v-5.918h0.984L367.912,182.255L367.912,182.255z"/>
			<path fill="#808080" d="M375.963,182.255h-1.371l-3.246-3.844c-0.118-0.146-0.192-0.242-0.223-0.293h-0.021v4.137h-0.984v-8.402
				h0.984v3.949h0.021c0.055-0.086,0.129-0.182,0.223-0.287l3.144-3.662h1.225l-3.604,4.031L375.963,182.255z"/>
		</g>
		<g>
			<path fill="#808080" d="M307.272,182.343v-1.16c0.133,0.117,0.291,0.223,0.477,0.316c0.188,0.092,0.381,0.172,0.586,0.236
				c0.205,0.063,0.412,0.113,0.619,0.148s0.398,0.053,0.574,0.053c0.604,0,1.057-0.111,1.354-0.338
				c0.297-0.225,0.449-0.547,0.449-0.969c0-0.229-0.051-0.424-0.15-0.594c-0.1-0.168-0.235-0.32-0.411-0.459
				c-0.177-0.141-0.386-0.271-0.625-0.398c-0.24-0.125-0.498-0.26-0.775-0.4c-0.293-0.146-0.566-0.299-0.82-0.451
				c-0.254-0.15-0.475-0.318-0.662-0.504c-0.186-0.184-0.336-0.393-0.44-0.623c-0.107-0.232-0.16-0.506-0.16-0.816
				c0-0.383,0.084-0.717,0.252-1s0.389-0.518,0.662-0.699c0.271-0.184,0.584-0.32,0.934-0.41c0.351-0.09,0.707-0.135,1.07-0.135
				c0.828,0,1.432,0.1,1.812,0.299v1.107c-0.496-0.346-1.134-0.518-1.91-0.518c-0.215,0-0.431,0.021-0.646,0.066
				s-0.406,0.119-0.574,0.221c-0.168,0.104-0.305,0.232-0.409,0.395c-0.105,0.16-0.158,0.354-0.158,0.586
				c0,0.215,0.039,0.398,0.119,0.557s0.198,0.299,0.354,0.428s0.346,0.254,0.57,0.375c0.223,0.121,0.481,0.254,0.777,0.398
				c0.301,0.146,0.586,0.305,0.854,0.469c0.27,0.164,0.506,0.346,0.709,0.545s0.363,0.42,0.482,0.662
				c0.118,0.242,0.18,0.521,0.18,0.832c0,0.414-0.082,0.766-0.244,1.053s-0.381,0.52-0.656,0.699
				c-0.272,0.18-0.592,0.311-0.948,0.391c-0.359,0.08-0.738,0.119-1.14,0.119c-0.133,0-0.297-0.012-0.492-0.031
				c-0.192-0.021-0.395-0.053-0.598-0.094s-0.395-0.094-0.578-0.152C307.526,182.485,307.381,182.417,307.272,182.343z"/>
			<path fill="#808080" d="M318.493,182.683h-4.453v-8.402h4.266v0.891h-3.278v2.795h3.035v0.885h-3.035v2.941h3.469v0.891H318.493
				L318.493,182.683z"/>
			<path fill="#808080" d="M321.094,179.507v3.176h-0.981v-8.402h2.309c0.898,0,1.595,0.219,2.088,0.654
				c0.494,0.439,0.742,1.057,0.742,1.854s-0.274,1.449-0.824,1.957c-0.549,0.508-1.289,0.762-2.223,0.762H321.094L321.094,179.507z
				 M321.094,175.171v3.443h1.031c0.68,0,1.197-0.154,1.555-0.465c0.359-0.313,0.537-0.75,0.537-1.314
				c0-1.109-0.653-1.664-1.969-1.664H321.094z"/>
		</g>
		<g>
			<path fill="#808080" d="M271.426,53.154c-0.621,0.328-1.396,0.492-2.32,0.492c-1.194,0-2.151-0.385-2.87-1.154
				c-0.72-0.769-1.078-1.778-1.078-3.028c0-1.345,0.403-2.431,1.213-3.259c0.81-0.827,1.834-1.241,3.076-1.241
				c0.797,0,1.457,0.114,1.979,0.346v1.049c-0.604-0.336-1.268-0.504-1.992-0.504c-0.965,0-1.748,0.322-2.348,0.967
				c-0.6,0.646-0.898,1.506-0.898,2.584c0,1.023,0.279,1.839,0.841,2.446c0.562,0.607,1.297,0.911,2.207,0.911
				c0.844,0,1.573-0.188,2.19-0.563V53.154L271.426,53.154z"/>
			<path fill="#808080" d="M279.452,53.505h-0.983v-3.832h-4.349v3.832h-0.983v-8.402h0.983v3.686h4.349v-3.686h0.983V53.505z"/>
			<path fill="#808080" d="M288.159,53.505h-1.09l-0.892-2.355h-3.563l-0.838,2.355h-1.098l3.225-8.402h1.02L288.159,53.505z
				 M285.856,50.265l-1.318-3.58c-0.043-0.117-0.086-0.305-0.129-0.563h-0.022c-0.039,0.238-0.084,0.427-0.136,0.563l-1.307,3.58
				H285.856z"/>
			<path fill="#808080" d="M293.661,45.993h-3.281v2.906h3.035v0.885h-3.035v3.722h-0.983v-8.402h4.266L293.661,45.993
				L293.661,45.993z"/>
			<path fill="#808080" d="M299.521,45.993h-3.281v2.906h3.035v0.885h-3.035v3.722h-0.984v-8.402h4.267L299.521,45.993
				L299.521,45.993z"/>
		</g>
		<g>
			<path fill="#808080" d="M190.138,117.345h-0.979v-5.637c0-0.445,0.027-0.99,0.082-1.635h-0.023
				c-0.094,0.379-0.178,0.648-0.252,0.813l-2.871,6.457h-0.48l-2.865-6.41c-0.082-0.188-0.166-0.475-0.252-0.859h-0.023
				c0.031,0.336,0.047,0.885,0.047,1.645v5.625h-0.949v-8.4h1.301l2.578,5.857c0.199,0.449,0.328,0.785,0.387,1.008h0.035
				c0.168-0.461,0.303-0.805,0.404-1.029l2.631-5.836h1.23L190.138,117.345L190.138,117.345z"/>
			<path fill="#808080" d="M202.307,108.944l-2.373,8.4h-1.154l-1.729-6.141c-0.074-0.262-0.119-0.547-0.135-0.855h-0.023
				c-0.023,0.289-0.074,0.57-0.152,0.846l-1.74,6.15h-1.143l-2.461-8.4h1.084l1.787,6.443c0.074,0.271,0.121,0.553,0.141,0.846
				h0.029c0.02-0.207,0.08-0.488,0.182-0.846l1.857-6.443h0.943l1.781,6.49c0.063,0.225,0.109,0.484,0.141,0.785h0.023
				c0.016-0.203,0.068-0.473,0.158-0.809l1.717-6.469L202.307,108.944L202.307,108.944z"/>
			<path fill="#808080" d="M203.163,117.005v-1.16c0.133,0.117,0.292,0.225,0.478,0.316c0.186,0.094,0.381,0.174,0.586,0.236
				c0.205,0.064,0.411,0.113,0.618,0.148s0.398,0.053,0.574,0.053c0.605,0,1.058-0.111,1.356-0.336
				c0.298-0.227,0.448-0.549,0.448-0.971c0-0.227-0.05-0.424-0.149-0.592s-0.237-0.32-0.413-0.461
				c-0.176-0.139-0.384-0.271-0.624-0.396c-0.24-0.127-0.499-0.262-0.776-0.4c-0.293-0.148-0.566-0.301-0.82-0.451
				c-0.254-0.152-0.475-0.32-0.662-0.504c-0.187-0.186-0.335-0.393-0.442-0.625c-0.107-0.23-0.161-0.504-0.161-0.816
				c0-0.383,0.084-0.717,0.252-0.998c0.168-0.283,0.389-0.518,0.662-0.701c0.273-0.182,0.585-0.318,0.935-0.41
				c0.35-0.09,0.706-0.135,1.069-0.135c0.828,0,1.432,0.102,1.811,0.299v1.107c-0.496-0.344-1.133-0.516-1.91-0.516
				c-0.215,0-0.43,0.021-0.645,0.066s-0.406,0.117-0.574,0.219c-0.168,0.104-0.305,0.232-0.41,0.395
				c-0.105,0.16-0.158,0.354-0.158,0.586c0,0.215,0.04,0.4,0.12,0.557c0.08,0.158,0.198,0.301,0.354,0.43
				c0.156,0.129,0.347,0.254,0.571,0.375c0.224,0.121,0.483,0.254,0.776,0.396c0.301,0.148,0.586,0.307,0.855,0.469
				c0.269,0.164,0.506,0.348,0.709,0.547c0.203,0.197,0.364,0.42,0.483,0.66c0.119,0.242,0.179,0.521,0.179,0.832
				c0,0.414-0.081,0.766-0.243,1.053s-0.381,0.521-0.656,0.699c-0.275,0.18-0.593,0.311-0.952,0.391
				c-0.359,0.08-0.738,0.121-1.137,0.121c-0.133,0-0.297-0.012-0.492-0.033c-0.195-0.021-0.395-0.053-0.598-0.094
				c-0.203-0.041-0.396-0.092-0.577-0.15C203.419,117.149,203.272,117.079,203.163,117.005z"/>
		</g>
		<g>
			<path fill="#808080" d="M311.432,130.954h-0.977l-1.172-1.963c-0.107-0.184-0.213-0.338-0.314-0.467
				c-0.1-0.127-0.202-0.232-0.309-0.313c-0.107-0.082-0.221-0.143-0.342-0.18c-0.123-0.037-0.26-0.057-0.414-0.057h-0.674v2.979
				h-0.82v-7.002h2.09c0.307,0,0.59,0.037,0.848,0.115c0.261,0.074,0.484,0.191,0.675,0.35c0.19,0.154,0.34,0.35,0.446,0.582
				c0.107,0.232,0.16,0.506,0.16,0.818c0,0.242-0.035,0.467-0.108,0.672c-0.072,0.203-0.179,0.385-0.313,0.543
				c-0.135,0.16-0.297,0.297-0.488,0.408c-0.188,0.111-0.403,0.199-0.643,0.262v0.02c0.117,0.053,0.219,0.111,0.307,0.18
				c0.086,0.066,0.168,0.145,0.246,0.236c0.078,0.09,0.154,0.193,0.232,0.311c0.076,0.115,0.162,0.25,0.256,0.402L311.432,130.954z
				 M307.233,124.696v2.539h1.11c0.205,0,0.396-0.031,0.57-0.094s0.324-0.15,0.451-0.268c0.127-0.115,0.227-0.258,0.297-0.424
				c0.072-0.168,0.107-0.355,0.107-0.564c0-0.373-0.121-0.666-0.363-0.877c-0.242-0.209-0.594-0.313-1.053-0.313H307.233z"/>
			<path fill="#808080" d="M320.694,123.952l-1.978,7.002h-0.963l-1.438-5.115c-0.063-0.219-0.101-0.457-0.113-0.713h-0.021
				c-0.02,0.24-0.063,0.475-0.127,0.701l-1.448,5.127h-0.953l-2.051-7.002h0.901l1.49,5.371c0.063,0.227,0.102,0.459,0.117,0.703
				h0.022c0.019-0.174,0.066-0.406,0.15-0.703l1.549-5.371h0.785l1.484,5.41c0.053,0.188,0.092,0.402,0.116,0.654h0.021
				c0.014-0.17,0.057-0.395,0.133-0.674l1.43-5.393L320.694,123.952L320.694,123.952z"/>
			<path fill="#808080" d="M326.754,130.954h-0.977l-1.172-1.963c-0.107-0.184-0.213-0.338-0.313-0.467
				c-0.102-0.127-0.205-0.232-0.311-0.313c-0.107-0.082-0.222-0.143-0.343-0.18c-0.12-0.037-0.262-0.057-0.411-0.057h-0.677v2.979
				h-0.817v-7.002h2.09c0.305,0,0.588,0.037,0.848,0.115c0.258,0.074,0.482,0.191,0.674,0.35c0.189,0.154,0.339,0.35,0.445,0.582
				c0.107,0.232,0.162,0.506,0.162,0.818c0,0.242-0.037,0.467-0.109,0.672c-0.073,0.203-0.178,0.385-0.313,0.543
				c-0.137,0.16-0.299,0.297-0.488,0.408c-0.19,0.111-0.406,0.199-0.643,0.262v0.02c0.117,0.053,0.219,0.111,0.305,0.18
				c0.086,0.066,0.168,0.145,0.246,0.236c0.078,0.09,0.156,0.193,0.231,0.311c0.074,0.115,0.16,0.25,0.257,0.402L326.754,130.954z
				 M322.555,124.696v2.539h1.113c0.205,0,0.396-0.031,0.568-0.094c0.174-0.063,0.324-0.15,0.451-0.268
				c0.127-0.115,0.227-0.258,0.299-0.424c0.07-0.168,0.106-0.355,0.106-0.564c0-0.373-0.121-0.666-0.362-0.877
				c-0.244-0.209-0.595-0.313-1.054-0.313H322.555z"/>
		</g>
		<g>
			<path fill="#808080" d="M243.268,193.124h-0.814v-4.697c0-0.371,0.023-0.826,0.068-1.361h-0.021
				c-0.077,0.314-0.147,0.541-0.21,0.678l-2.393,5.383h-0.4l-2.387-5.344c-0.068-0.154-0.139-0.396-0.211-0.717h-0.02
				c0.026,0.279,0.039,0.736,0.039,1.371v4.688h-0.791v-7.002h1.084l2.148,4.883c0.166,0.375,0.273,0.654,0.322,0.84h0.028
				c0.14-0.383,0.252-0.67,0.337-0.857l2.192-4.863h1.024v7H243.268L243.268,193.124z"/>
			<path fill="#808080" d="M248.742,193.124h-3.633v-7.004h0.82v6.262h2.813V193.124z"/>
		</g>
		<g>
			<path fill="#808080" d="M186.81,49.721c0,0.996-0.211,1.771-0.633,2.323c-0.422,0.552-0.986,0.829-1.693,0.829
				c-0.328,0-0.598-0.048-0.809-0.142V51.76c0.211,0.151,0.484,0.229,0.82,0.229c0.887,0,1.33-0.752,1.33-2.256V44.33h0.984
				L186.81,49.721L186.81,49.721z"/>
			<path fill="#808080" d="M197.51,52.733h-0.979v-5.637c0-0.445,0.027-0.99,0.082-1.635h-0.023
				c-0.094,0.379-0.178,0.649-0.252,0.813l-2.871,6.457h-0.48l-2.865-6.41c-0.082-0.188-0.166-0.475-0.252-0.86h-0.023
				c0.031,0.336,0.047,0.885,0.047,1.646v5.625h-0.949V44.33h1.301l2.578,5.859c0.199,0.449,0.328,0.785,0.387,1.008h0.035
				c0.168-0.461,0.303-0.805,0.404-1.03l2.631-5.837h1.23L197.51,52.733L197.51,52.733z"/>
			<path fill="#808080" d="M205.742,52.733h-1.172l-1.406-2.354c-0.129-0.22-0.254-0.405-0.375-0.561
				c-0.121-0.156-0.245-0.28-0.372-0.378c-0.127-0.098-0.264-0.169-0.41-0.214c-0.146-0.045-0.312-0.067-0.495-0.067h-0.809v3.574
				h-0.984V44.33h2.508c0.367,0,0.706,0.047,1.017,0.139s0.58,0.23,0.809,0.419c0.229,0.188,0.407,0.421,0.536,0.7
				c0.129,0.278,0.193,0.605,0.193,0.98c0,0.293-0.044,0.563-0.132,0.807c-0.088,0.243-0.213,0.462-0.375,0.652
				c-0.162,0.191-0.357,0.354-0.586,0.489c-0.229,0.135-0.485,0.239-0.771,0.313v0.023c0.141,0.063,0.263,0.134,0.366,0.214
				c0.103,0.08,0.202,0.175,0.296,0.284c0.094,0.109,0.187,0.233,0.278,0.372c0.091,0.139,0.194,0.3,0.308,0.482L205.742,52.733z
				 M200.703,45.221v3.047h1.336c0.246,0,0.474-0.037,0.683-0.111c0.209-0.073,0.39-0.181,0.542-0.318
				c0.152-0.139,0.271-0.31,0.357-0.511c0.086-0.2,0.129-0.427,0.129-0.677c0-0.449-0.146-0.8-0.437-1.052s-0.712-0.378-1.263-0.378
				H200.703L200.703,45.221z"/>
		</g>
		<g>
			<path fill="#808080" d="M329.94,45.993h-3.281v2.906h3.035v0.885h-3.035v3.722h-0.984v-8.402h4.267L329.94,45.993L329.94,45.993z
				"/>
			<path fill="#808080" d="M335.894,53.505h-4.359v-8.402h0.984v7.512h3.375V53.505z"/>
			<path fill="#808080" d="M343.685,53.505h-1.091l-0.891-2.355h-3.563l-0.841,2.355h-1.096l3.223-8.402h1.021L343.685,53.505z
				 M341.381,50.265l-1.315-3.58c-0.043-0.117-0.086-0.305-0.129-0.563h-0.023c-0.039,0.238-0.084,0.427-0.135,0.563l-1.31,3.58
				H341.381z"/>
			<path fill="#808080" d="M350.944,53.505h-1.172l-1.406-2.355c-0.129-0.219-0.254-0.405-0.375-0.56
				c-0.121-0.155-0.244-0.28-0.371-0.378c-0.127-0.099-0.264-0.169-0.41-0.214c-0.145-0.046-0.313-0.067-0.496-0.067h-0.809v3.574
				h-0.984v-8.402h2.508c0.367,0,0.707,0.046,1.021,0.138c0.311,0.093,0.58,0.231,0.809,0.419c0.229,0.188,0.406,0.422,0.535,0.7
				c0.129,0.279,0.193,0.606,0.193,0.981c0,0.293-0.043,0.562-0.131,0.806c-0.091,0.244-0.216,0.462-0.375,0.653
				c-0.162,0.19-0.357,0.354-0.586,0.488c-0.23,0.136-0.486,0.239-0.771,0.313v0.023c0.141,0.063,0.264,0.134,0.367,0.214
				c0.102,0.08,0.201,0.175,0.295,0.284c0.094,0.108,0.188,0.232,0.279,0.371c0.09,0.14,0.19,0.301,0.307,0.483L350.944,53.505z
				 M345.905,45.993v3.048h1.336c0.246,0,0.475-0.037,0.684-0.111c0.209-0.074,0.392-0.181,0.541-0.319
				c0.152-0.138,0.271-0.309,0.357-0.51c0.086-0.201,0.129-0.427,0.129-0.677c0-0.449-0.146-0.8-0.437-1.053
				c-0.291-0.252-0.713-0.378-1.264-0.378H345.905z"/>
			<path fill="#808080" d="M356.551,53.505h-4.45v-8.402h4.266v0.891h-3.281v2.795h3.035v0.886h-3.035v2.94h3.469v0.891
				L356.551,53.505L356.551,53.505z"/>
		</g>
		<g>
			<path fill="#E6E6E6" d="M199.386,182.286h-0.727l-0.594-1.568h-2.375l-0.559,1.568h-0.73l2.148-5.602h0.68L199.386,182.286z
				 M197.85,180.126l-0.879-2.387c-0.028-0.078-0.058-0.203-0.086-0.375h-0.016c-0.026,0.158-0.056,0.283-0.09,0.375l-0.871,2.387
				H197.85z"/>
			<path fill="#E6E6E6" d="M204.307,180.022c0,1.572-0.71,2.357-2.129,2.357c-1.359,0-2.039-0.756-2.039-2.27v-3.428h0.656v3.385
				c0,1.146,0.484,1.723,1.453,1.723c0.935,0,1.402-0.555,1.402-1.664v-3.441h0.656L204.307,180.022L204.307,180.022z"/>
			<path fill="#E6E6E6" d="M205.706,182.286v-5.602h1.547c1.974,0,2.961,0.91,2.961,2.73c0,0.863-0.274,1.559-0.822,2.084
				c-0.548,0.523-1.282,0.785-2.201,0.785L205.706,182.286L205.706,182.286z M206.362,177.28v4.414h0.836
				c0.734,0,1.306-0.195,1.715-0.592c0.409-0.393,0.613-0.949,0.613-1.672c0-1.434-0.763-2.15-2.289-2.15H206.362z"/>
		</g>
		<g>
			<path fill="#E6E6E6" d="M137.075,182.683v-6.301h1.793c0.545,0,0.977,0.133,1.297,0.398c0.318,0.268,0.479,0.613,0.479,1.041
				c0,0.357-0.097,0.668-0.29,0.934c-0.193,0.264-0.46,0.451-0.8,0.563v0.02c0.425,0.049,0.765,0.209,1.02,0.48
				c0.255,0.27,0.383,0.623,0.383,1.057c0,0.539-0.193,0.977-0.58,1.311c-0.387,0.334-0.875,0.5-1.464,0.5L137.075,182.683
				L137.075,182.683z M137.813,177.05v2.035h0.756c0.404,0,0.722-0.098,0.953-0.293c0.231-0.193,0.348-0.469,0.348-0.822
				c0-0.611-0.403-0.92-1.209-0.92H137.813z M137.813,179.749v2.268h1.002c0.434,0,0.77-0.104,1.009-0.309
				c0.238-0.205,0.358-0.486,0.358-0.844c0-0.744-0.508-1.115-1.521-1.115H137.813z"/>
			<path fill="#E6E6E6" d="M146.752,182.683h-0.879l-1.055-1.766c-0.097-0.164-0.19-0.305-0.281-0.42s-0.184-0.211-0.279-0.283
				c-0.095-0.074-0.197-0.127-0.308-0.16c-0.109-0.035-0.233-0.051-0.371-0.051h-0.606v2.68h-0.738v-6.301h1.881
				c0.275,0,0.529,0.033,0.763,0.104c0.232,0.068,0.435,0.174,0.606,0.313c0.171,0.143,0.305,0.316,0.402,0.525
				c0.096,0.209,0.145,0.455,0.145,0.734c0,0.221-0.033,0.422-0.099,0.605c-0.066,0.182-0.16,0.346-0.281,0.488
				c-0.122,0.145-0.269,0.268-0.439,0.365c-0.172,0.104-0.364,0.182-0.578,0.236v0.018c0.105,0.047,0.197,0.102,0.274,0.16
				c0.078,0.061,0.152,0.133,0.223,0.215c0.071,0.08,0.14,0.174,0.208,0.277c0.069,0.104,0.146,0.227,0.231,0.361L146.752,182.683z
				 M142.973,177.05v2.285h1.002c0.185,0,0.355-0.027,0.512-0.082c0.157-0.057,0.293-0.137,0.406-0.24
				c0.115-0.104,0.204-0.23,0.269-0.383c0.064-0.15,0.097-0.32,0.097-0.508c0-0.338-0.109-0.6-0.327-0.789
				c-0.219-0.188-0.534-0.283-0.947-0.283H142.973z"/>
			<path fill="#E6E6E6" d="M151.345,177.05h-1.819v5.635h-0.738v-5.635h-1.815v-0.668h4.373L151.345,177.05L151.345,177.05z"/>
		</g>
		<g>
			<path fill="#808080" d="M307.442,114.075c0,2.359-1.064,3.539-3.193,3.539c-2.039,0-3.059-1.135-3.059-3.402v-5.141h0.983v5.074
				c0,1.723,0.728,2.584,2.181,2.584c1.401,0,2.104-0.832,2.104-2.496v-5.162h0.984V114.075L307.442,114.075z"/>
			<path fill="#808080" d="M315.856,117.474h-0.984v-3.832h-4.348v3.832h-0.984v-8.4h0.984v3.686h4.348v-3.686h0.984V117.474z"/>
			<path fill="#808080" d="M322.325,109.962h-3.281v2.906h3.035v0.885h-3.035v3.721h-0.982v-8.4h4.266v0.891h-0.002V109.962z"/>
		</g>
		<path fill="#808080" d="M34.876,101.246c-0.033,0.23-0.1,0.43-0.193,0.594c-0.221,0.396-0.563,0.601-1.029,0.604
			c-0.691,0.01-1.09-0.345-1.193-1.062l-1.09-6.342l-1.279,6.342c-0.17,0.73-0.568,1.086-1.195,1.062
			c-0.678-0.024-1.063-0.345-1.152-0.957l-1.68-10.457c-0.047-0.579,0.197-0.931,0.734-1.053c0.104-0.026,0.203-0.039,0.299-0.039
			c0.471,0,0.785,0.256,0.945,0.77l1.004,6.383l1.203-6.301c0.059-0.151,0.137-0.284,0.232-0.396
			c0.229-0.268,0.525-0.408,0.889-0.418c0.26-0.012,0.49,0.043,0.697,0.158c0.236,0.127,0.379,0.313,0.426,0.551
			c0.219,1.092,0.615,3.166,1.189,6.221l1.02-6.146c0.15-0.549,0.473-0.822,0.965-0.822c0.082,0,0.164,0.008,0.248,0.023
			c0.537,0.094,0.783,0.477,0.732,1.143L34.876,101.246z M28.202,84.779V72.525h5.727c0.475,0.179,0.709,0.47,0.709,0.868
			c0,0.508-0.234,0.793-0.709,0.852h-3.73v3.515h2.939c0.482,0.068,0.725,0.383,0.725,0.941c0,0.514-0.242,0.799-0.725,0.854
			l-2.939-0.001v3.552h3.9c0.475,0.047,0.713,0.322,0.713,0.83c0,0.513-0.238,0.793-0.709,0.845L28.202,84.779L28.202,84.779z"/>
	</g>
	<path fill="none" stroke="#FF00FF" stroke-width="0.0283" stroke-miterlimit="10" d="M35.798,213.28
		c-1.561,0-2.836-1.271-2.836-2.836l0.167-11.928h-0.004c0.002-0.086,0.004-0.17,0.004-0.256c0-9.635-7.813-17.445-17.445-17.445
		l-11.505,0.035c-0.783,0.002-1.457-0.273-2.012-0.826c-0.553-0.553-0.832-1.225-0.832-2.008"/>
	<path fill="none" stroke="#FF00FF" stroke-width="0.0283" stroke-miterlimit="10" d="M465.935,178.167
		c0,1.584-1.261,2.877-2.808,2.885l-11.733,0.049c-9.572,0-17.228,6.813-17.228,16.617c0,0.086,0.002,0.174,0.004,0.26h-0.004
		v12.418c0,1.59-1.266,2.885-2.815,2.885"/>
	<path fill="none" stroke="#0000FF" stroke-width="0.0283" stroke-miterlimit="10" d="M446.483,198.472
		c0-3.129,2.539-5.668,5.668-5.668c3.131,0,5.67,2.539,5.67,5.67c-0.002,3.129-2.539,5.668-5.67,5.668
		S446.483,201.603,446.483,198.472"/>
	<path fill="none" stroke="#FF00FF" stroke-width="0.0287" stroke-miterlimit="10" d="M431.272,0.078
		c1.557-0.001,2.828,1.296,2.828,2.885v11.33h0.006c-0.004,0.086-0.006,0.174-0.006,0.262c0,9.8,7.795,17.748,17.407,17.748
		l11.674,0.005c1.558,0,2.828,1.296,2.828,2.884"/>
	<path fill="none" stroke="#FF00FF" stroke-width="0.0283" stroke-miterlimit="10" d="M1.413,34.764c0-1.561,1.27-2.831,2.828-2.835
		l11.509-0.026c9.633-0.001,17.447-7.813,17.447-17.445c0-0.087-0.004-0.172-0.004-0.258h0.004V2.848
		c-0.002-1.562,1.273-2.835,2.834-2.834"/>
	<path fill="none" stroke="#0000FF" stroke-width="0.0283" stroke-miterlimit="10" d="M446.332,14.962
		c0-3.13,2.539-5.669,5.668-5.669c3.131,0,5.67,2.539,5.67,5.67c-0.002,3.129-2.539,5.668-5.67,5.668S446.332,18.093,446.332,14.962
		"/>
	<path fill="none" stroke="#0000FF" stroke-width="0.0283" stroke-miterlimit="10" d="M10.14,14.963
		c0-3.131,2.539-5.669,5.669-5.669c3.129-0.001,5.668,2.539,5.668,5.669s-2.537,5.669-5.668,5.669
		C12.677,20.631,10.14,18.094,10.14,14.963"/>
	<path fill="none" stroke="#0000FF" stroke-width="0.0283" stroke-miterlimit="10" d="M10.061,198.329
		c0-3.129,2.539-5.668,5.669-5.668c3.129,0,5.668,2.539,5.668,5.67s-2.537,5.67-5.668,5.67
		C12.598,203.999,10.061,201.46,10.061,198.329"/>
	
		<rect x="1.334" y="0.014" fill="none" stroke="#0000FF" stroke-width="0.0283" stroke-miterlimit="10" width="464.676" height="213.267"/>
</g>
</svg>
