%
M48
M72
T01C0.0120
T02C0.0295
T03C0.0315
T04C0.0354
T05C0.0394
T06C0.0400
T07C0.0433
T08C0.0470
T09C0.0630
T10C0.0710
T11C0.0866
T12C0.0984
T13C0.1181
T14C0.1260
T15C0.1378
T16C0.2362
T17C0.3750
%
T01
X4067Y4980
X4067Y5380
X4067Y5680
X4067Y6680
X5067Y7780
X5967Y6880
X6567Y6380
X7267Y5680
X7867Y5580
X7567Y5080
X6867Y5180
X5167Y4880
X6267Y3180
X8667Y5280
X9667Y4480
X10067Y4780
X10067Y5280
X9867Y5980
X9667Y6680
X9667Y6980
X9767Y7280
X10067Y7580
X10867Y7080
X12367Y6680
X9067Y8180
X8867Y7880
X8167Y7480
X7467Y9080
X7167Y9080
X6667Y8780
X6367Y7780
X7867Y10380
X6667Y11680
X6767Y11980
X6567Y12380
X5467Y14780
X2967Y16980
X5867Y10380
X2967Y8180
X9767Y3980
X9767Y2280
X9167Y780
X14567Y2580
X34167Y580
X35267Y7280
X33967Y7080
X48467Y5780
X57155Y57118
X56780Y55743
X54655Y56243
X54405Y54618
X54155Y52118
X54655Y47305
X54405Y45680
X54155Y43180
X54655Y38305
X54405Y36680
X54155Y34180
X54655Y29180
X54405Y27555
X54155Y25055
X33767Y31705
X33767Y32005
X32967Y31405
X31967Y32405
X30767Y33005
X30267Y33205
X29667Y32905
X28667Y33205
X28167Y32905
X28267Y31805
X27467Y31505
X27167Y31505
X25967Y32805
X25667Y32505
X25367Y31605
X24467Y32505
X23867Y33305
X24067Y34205
X24717Y34180
X24717Y34930
X23467Y35305
X22467Y34505
X22867Y36505
X21967Y37105
X24842Y36930
X27017Y35605
X27467Y34005
X25767Y33305
X22867Y31605
X19367Y31505
X16567Y30305
X16267Y30605
X15567Y30805
X12467Y30005
X11667Y29205
X9867Y30105
X4667Y29805
X4067Y28305
X3267Y27705
X2467Y53405
X4967Y55905
X6067Y40705
X11167Y33605
X12067Y33005
X6667Y30405
X19567Y24805
X29367Y31205
X29867Y31205
X30567Y34105
X31267Y34205
X33667Y33405
X35967Y36005
X35767Y36405
X35667Y37305
X32967Y39305
X33967Y39905
X35267Y40505
X39667Y42205
X38067Y48405
X33717Y45055
X28867Y39105
X29767Y38505
X29667Y36905
X29867Y36405
X32267Y37505
X24842Y39805
X23717Y41055
X19517Y40955
X18367Y38505
X31767Y26005
X33567Y27505
X35367Y25205
X56780Y25930
X57030Y26305
X56780Y28680
X57155Y30055
X57030Y35430
X56780Y35055
X56780Y37805
X57155Y39180
X57030Y44430
X56780Y44055
X56780Y46805
X57155Y48180
X57030Y53368
X56780Y52993
X42467Y58430
X40967Y58380
X41567Y56105
X42467Y54605
X41967Y53305
X38342Y55430
X38342Y56555
T02
X34043Y29898
X34035Y32914
X34689Y34517
X35572Y35582
X38185Y37114
X41199Y37109
X42772Y36474
X43889Y35584
X45389Y32912
X45426Y29945
X44786Y28473
X43907Y27261
X41244Y25721
X38190Y25766
X36777Y26320
X35563Y27261
T03
X56247Y3310
X57428Y5200
X23833Y1146
X23046Y1146
X22258Y1146
X21471Y1146
X21483Y3011
X22271Y3011
X23058Y3011
X23845Y3011
X7294Y32199
X8081Y32199
X8869Y32199
X9656Y32199
X10967Y28930
X12167Y28930
X12167Y27430
X10967Y27430
X10967Y25930
X12167Y25930
X17667Y27430
X18767Y27430
X18767Y28930
X17667Y28930
X17667Y25930
X18767Y25930
X24267Y27430
X25467Y27430
X25467Y28930
X24267Y28930
X24267Y25930
X25467Y25930
X30967Y27430
X30967Y28930
X30967Y25930
X22531Y32199
X21744Y32199
X20956Y32199
X20169Y32199
X15781Y32199
X14994Y32199
X14206Y32199
X13419Y32199
X5467Y27430
X5467Y28930
X5467Y25930
X47017Y39555
X47017Y41055
X47017Y42555
X41517Y41055
X41517Y42555
X41517Y39555
X44699Y50382
X44699Y51169
X44699Y51957
X44699Y52744
X46574Y52744
X46574Y51957
X46574Y51169
X46574Y50382
X59511Y56431
X59511Y55644
X59511Y54857
X59511Y54069
X59511Y27007
X59511Y27794
X59511Y28582
X59511Y29369
X59511Y36132
X59511Y36919
X59511Y37707
X59511Y38494
X59511Y45132
X59511Y45919
X59511Y46707
X59511Y47494
T04
X12459Y11446
X12459Y12446
X12459Y13446
X12459Y14446
X12459Y15446
X12459Y16446
X12459Y17446
X12459Y18446
X11459Y18446
X11459Y17446
X11459Y16446
X11459Y15446
X11459Y14446
X11459Y13446
X11459Y12446
X11459Y11446
T05
X51827Y27321
X51827Y28305
X51827Y29289
X51827Y36446
X51827Y37430
X51827Y38414
X51827Y45446
X51827Y46430
X51827Y47414
X51827Y54383
X51827Y55368
X51827Y56352
X57536Y56368
X57536Y54368
X57536Y47430
X57536Y45430
X57536Y38430
X57536Y36430
X57536Y29305
X57536Y27305
X55066Y5200
X27654Y2530
X26670Y2530
X25685Y2530
X19574Y2495
X18590Y2495
X17605Y2495
T06
X14392Y3943
X14392Y4943
X14392Y5943
X13392Y5943
X13392Y4943
X13392Y3943
T07
X5850Y39978
X6850Y39978
X7850Y39978
X8850Y39978
X9850Y39978
X10850Y39978
X11850Y39978
X12850Y39978
X13850Y39978
X14850Y39978
X15850Y39978
X16850Y39978
X17850Y39978
X18850Y39978
X19850Y39978
X20850Y39978
T08
X51550Y4353
X51550Y6313
X46630Y6313
X44990Y6293
X44990Y4333
X46630Y4353
X40070Y4333
X38390Y4333
X38390Y6293
X40070Y6293
X33470Y6293
X33470Y4333
X9635Y11083
X9635Y13043
X4715Y16278
X4715Y18238
X9635Y18238
X9635Y16278
X4715Y13043
X4715Y11083
X5757Y38035
X5757Y36075
X10677Y36075
X12457Y36075
X12457Y38035
X10677Y38035
X17377Y38035
X19057Y38035
X19057Y36075
X17377Y36075
X23977Y36075
X25757Y36075
X25757Y38035
X23977Y38035
X30677Y38035
X30677Y36075
X35487Y41770
X37447Y41770
X40737Y45095
X42697Y45095
X37447Y46690
X37447Y48395
X35487Y48395
X35487Y46690
X40737Y50015
X42697Y50015
X37447Y53315
X35487Y53315
T09
X32175Y1100
X36467Y40555
T10
X7175Y10293
X7175Y13833
X7175Y15488
X7175Y19028
X49090Y7103
X49090Y3563
X42530Y3543
X42530Y7083
X35930Y7083
X35930Y3543
T11
X29071Y5483
X24268Y5483
X20991Y5448
X16188Y5448
X54780Y25903
X54780Y57769
X54780Y48832
X54780Y52966
X54780Y44028
X54780Y39832
X54780Y30707
X54780Y35028
T12
X2606Y54742
X3197Y40568
X51405Y25555
X51405Y30930
X51405Y34680
X51405Y40055
X51405Y43680
X51405Y49055
X51405Y52618
X51405Y57993
X33708Y54742
X33118Y40568
X59280Y57993
X59280Y52618
X59280Y49055
X59280Y43680
X59280Y40055
X59280Y34680
X59280Y30930
X59280Y25555
T13
X58785Y1821
X3098Y20423
X3217Y57555
X3092Y25930
X45967Y25930
X45842Y57555
X58858Y20383
X3108Y1821
T14
X39717Y27690
T15
X54569Y8737
X12050Y8737
X12050Y20155
X54569Y20155
T16
X8217Y27430
X14917Y27430
X21517Y27430
X28217Y27430
X44267Y41055
T17
X39717Y31430
M30
