  0
SECTION
  2
HEADER
  9
$ACADVER
  1
AC1009
  9
$MEASUREMENT
 70
     1
  0
ENDSEC
  0
SECTION
  2
ENTITIES
  0
LWPOLYLINE
  8
0
 62
7
 90
5
 70
1
 10
143.235388
 20
131.286250
 10
143.235388
 20
131.691088
 10
141.562113
 20
131.691088
 10
141.562113
 20
130.881412
 10
143.235388
 20
130.881412
  0
LWPOLYLINE
  8
0
 62
7
 90
5
 70
1
 10
143.235388
 20
132.556250
 10
143.235388
 20
132.961088
 10
141.562113
 20
132.961088
 10
141.562113
 20
132.151412
 10
143.235388
 20
132.151412
  0
LWPOLYLINE
  8
0
 62
7
 90
5
 70
1
 10
143.235388
 20
133.826250
 10
143.235388
 20
134.231088
 10
141.562113
 20
134.231088
 10
141.562113
 20
133.421412
 10
143.235388
 20
133.421412
  0
LWPOLYLINE
  8
0
 62
7
 90
5
 70
1
 10
143.235388
 20
135.096250
 10
143.235388
 20
135.501088
 10
141.562113
 20
135.501088
 10
141.562113
 20
134.691412
 10
143.235388
 20
134.691412
  0
LWPOLYLINE
  8
0
 62
7
 90
5
 70
1
 10
143.235388
 20
62.547500
 10
143.235388
 20
62.952337
 10
141.562113
 20
62.952337
 10
141.562113
 20
62.142663
 10
143.235388
 20
62.142663
  0
LWPOLYLINE
  8
0
 62
7
 90
5
 70
1
 10
143.235388
 20
63.817500
 10
143.235388
 20
64.222338
 10
141.562113
 20
64.222338
 10
141.562113
 20
63.412663
 10
143.235388
 20
63.412663
  0
LWPOLYLINE
  8
0
 62
7
 90
5
 70
1
 10
143.235388
 20
65.087500
 10
143.235388
 20
65.492338
 10
141.562113
 20
65.492338
 10
141.562113
 20
64.682663
 10
143.235388
 20
64.682663
  0
LWPOLYLINE
  8
0
 62
7
 90
5
 70
1
 10
143.235388
 20
66.357500
 10
143.235388
 20
66.762338
 10
141.562113
 20
66.762338
 10
141.562113
 20
65.952663
 10
143.235388
 20
65.952663
  0
LWPOLYLINE
  8
0
 62
7
 90
5
 70
1
 10
143.235388
 20
85.725000
 10
143.235388
 20
86.129837
 10
141.562113
 20
86.129837
 10
141.562113
 20
85.320162
 10
143.235388
 20
85.320162
  0
LWPOLYLINE
  8
0
 62
7
 90
5
 70
1
 10
143.235388
 20
86.995000
 10
143.235388
 20
87.399838
 10
141.562113
 20
87.399838
 10
141.562113
 20
86.590163
 10
143.235388
 20
86.590163
  0
LWPOLYLINE
  8
0
 62
7
 90
5
 70
1
 10
143.235388
 20
88.265000
 10
143.235388
 20
88.669837
 10
141.562113
 20
88.669837
 10
141.562113
 20
87.860163
 10
143.235388
 20
87.860163
  0
LWPOLYLINE
  8
0
 62
7
 90
5
 70
1
 10
143.235388
 20
89.535000
 10
143.235388
 20
89.939837
 10
141.562113
 20
89.939837
 10
141.562113
 20
89.130162
 10
143.235388
 20
89.130162
  0
LWPOLYLINE
  8
0
 62
7
 90
5
 70
1
 10
143.235388
 20
108.585000
 10
143.235388
 20
108.989837
 10
141.562113
 20
108.989837
 10
141.562113
 20
108.180162
 10
143.235388
 20
108.180162
  0
LWPOLYLINE
  8
0
 62
7
 90
5
 70
1
 10
143.235388
 20
109.855000
 10
143.235388
 20
110.259838
 10
141.562113
 20
110.259838
 10
141.562113
 20
109.450163
 10
143.235388
 20
109.450163
  0
LWPOLYLINE
  8
0
 62
7
 90
5
 70
1
 10
143.235388
 20
111.125000
 10
143.235388
 20
111.529837
 10
141.562113
 20
111.529837
 10
141.562113
 20
110.720163
 10
143.235388
 20
110.720163
  0
LWPOLYLINE
  8
0
 62
7
 90
5
 70
1
 10
143.235388
 20
112.395000
 10
143.235388
 20
112.799837
 10
141.562113
 20
112.799837
 10
141.562113
 20
111.990162
 10
143.235388
 20
111.990162
  0
LWPOLYLINE
  8
0
 62
7
 90
5
 70
1
 10
131.286250
 20
144.637188
 10
130.537813
 20
144.637188
 10
130.537813
 20
143.340313
 10
132.034687
 20
143.340313
 10
132.034687
 20
144.637188
  0
LWPOLYLINE
  8
0
 62
7
 90
5
 70
1
 10
131.286250
 20
146.537187
 10
130.537813
 20
146.537187
 10
130.537813
 20
145.240312
 10
132.034687
 20
145.240312
 10
132.034687
 20
146.537187
  0
LWPOLYLINE
  8
0
 62
7
 90
5
 70
1
 10
139.541250
 20
145.240312
 10
140.289687
 20
145.240312
 10
140.289687
 20
146.537187
 10
138.792812
 20
146.537187
 10
138.792812
 20
145.240312
  0
LWPOLYLINE
  8
0
 62
7
 90
5
 70
1
 10
139.541250
 20
143.340313
 10
140.289687
 20
143.340313
 10
140.289687
 20
144.637188
 10
138.792812
 20
144.637188
 10
138.792812
 20
143.340313
  0
LWPOLYLINE
  8
0
 62
7
 90
5
 70
1
 10
139.223750
 20
134.794688
 10
138.475313
 20
134.794688
 10
138.475313
 20
133.497813
 10
139.972187
 20
133.497813
 10
139.972187
 20
134.794688
  0
LWPOLYLINE
  8
0
 62
7
 90
5
 70
1
 10
139.223750
 20
136.694687
 10
138.475313
 20
136.694687
 10
138.475313
 20
135.397812
 10
139.972187
 20
135.397812
 10
139.972187
 20
136.694687
  0
LWPOLYLINE
  8
0
 62
7
 90
5
 70
1
 10
131.603750
 20
135.397812
 10
132.352187
 20
135.397812
 10
132.352187
 20
136.694687
 10
130.855312
 20
136.694687
 10
130.855312
 20
135.397812
  0
LWPOLYLINE
  8
0
 62
7
 90
5
 70
1
 10
131.603750
 20
133.497813
 10
132.352187
 20
133.497813
 10
132.352187
 20
134.794688
 10
130.855312
 20
134.794688
 10
130.855312
 20
133.497813
  0
LWPOLYLINE
  8
0
 62
7
 90
5
 70
1
 10
131.286250
 20
75.898438
 10
130.537813
 20
75.898438
 10
130.537813
 20
74.601562
 10
132.034687
 20
74.601562
 10
132.034687
 20
75.898438
  0
LWPOLYLINE
  8
0
 62
7
 90
5
 70
1
 10
131.286250
 20
77.798438
 10
130.537813
 20
77.798438
 10
130.537813
 20
76.501563
 10
132.034687
 20
76.501563
 10
132.034687
 20
77.798438
  0
LWPOLYLINE
  8
0
 62
7
 90
5
 70
1
 10
139.541250
 20
76.501563
 10
140.289687
 20
76.501563
 10
140.289687
 20
77.798438
 10
138.792812
 20
77.798438
 10
138.792812
 20
76.501563
  0
LWPOLYLINE
  8
0
 62
7
 90
5
 70
1
 10
139.541250
 20
74.601562
 10
140.289687
 20
74.601562
 10
140.289687
 20
75.898438
 10
138.792812
 20
75.898438
 10
138.792812
 20
74.601562
  0
LWPOLYLINE
  8
0
 62
7
 90
5
 70
1
 10
139.223750
 20
66.055937
 10
138.475313
 20
66.055937
 10
138.475313
 20
64.759062
 10
139.972187
 20
64.759062
 10
139.972187
 20
66.055937
  0
LWPOLYLINE
  8
0
 62
7
 90
5
 70
1
 10
139.223750
 20
67.955938
 10
138.475313
 20
67.955938
 10
138.475313
 20
66.659063
 10
139.972187
 20
66.659063
 10
139.972187
 20
67.955938
  0
LWPOLYLINE
  8
0
 62
7
 90
5
 70
1
 10
131.603750
 20
66.659063
 10
132.352187
 20
66.659063
 10
132.352187
 20
67.955938
 10
130.855312
 20
67.955938
 10
130.855312
 20
66.659063
  0
LWPOLYLINE
  8
0
 62
7
 90
5
 70
1
 10
131.603750
 20
64.759062
 10
132.352187
 20
64.759062
 10
132.352187
 20
66.055937
 10
130.855312
 20
66.055937
 10
130.855312
 20
64.759062
  0
LWPOLYLINE
  8
0
 62
7
 90
5
 70
1
 10
131.286250
 20
99.075937
 10
130.537813
 20
99.075937
 10
130.537813
 20
97.779062
 10
132.034687
 20
97.779062
 10
132.034687
 20
99.075937
  0
LWPOLYLINE
  8
0
 62
7
 90
5
 70
1
 10
131.286250
 20
100.975938
 10
130.537813
 20
100.975938
 10
130.537813
 20
99.679063
 10
132.034687
 20
99.679063
 10
132.034687
 20
100.975938
  0
LWPOLYLINE
  8
0
 62
7
 90
5
 70
1
 10
139.541250
 20
99.679063
 10
140.289687
 20
99.679063
 10
140.289687
 20
100.975938
 10
138.792812
 20
100.975938
 10
138.792812
 20
99.679063
  0
LWPOLYLINE
  8
0
 62
7
 90
5
 70
1
 10
139.541250
 20
97.779062
 10
140.289687
 20
97.779062
 10
140.289687
 20
99.075937
 10
138.792812
 20
99.075937
 10
138.792812
 20
97.779062
  0
LWPOLYLINE
  8
0
 62
7
 90
5
 70
1
 10
139.223750
 20
89.233437
 10
138.475313
 20
89.233437
 10
138.475313
 20
87.936562
 10
139.972187
 20
87.936562
 10
139.972187
 20
89.233437
  0
LWPOLYLINE
  8
0
 62
7
 90
5
 70
1
 10
139.223750
 20
91.133437
 10
138.475313
 20
91.133437
 10
138.475313
 20
89.836562
 10
139.972187
 20
89.836562
 10
139.972187
 20
91.133437
  0
LWPOLYLINE
  8
0
 62
7
 90
5
 70
1
 10
131.603750
 20
89.836562
 10
132.352187
 20
89.836562
 10
132.352187
 20
91.133437
 10
130.855312
 20
91.133437
 10
130.855312
 20
89.836562
  0
LWPOLYLINE
  8
0
 62
7
 90
5
 70
1
 10
131.603750
 20
87.936562
 10
132.352187
 20
87.936562
 10
132.352187
 20
89.233437
 10
130.855312
 20
89.233437
 10
130.855312
 20
87.936562
  0
LWPOLYLINE
  8
0
 62
7
 90
5
 70
1
 10
131.286250
 20
121.935937
 10
130.537813
 20
121.935937
 10
130.537813
 20
120.639062
 10
132.034687
 20
120.639062
 10
132.034687
 20
121.935937
  0
LWPOLYLINE
  8
0
 62
7
 90
5
 70
1
 10
131.286250
 20
123.835938
 10
130.537813
 20
123.835938
 10
130.537813
 20
122.539062
 10
132.034687
 20
122.539062
 10
132.034687
 20
123.835938
  0
LWPOLYLINE
  8
0
 62
7
 90
5
 70
1
 10
139.541250
 20
122.539062
 10
140.289687
 20
122.539062
 10
140.289687
 20
123.835938
 10
138.792812
 20
123.835938
 10
138.792812
 20
122.539062
  0
LWPOLYLINE
  8
0
 62
7
 90
5
 70
1
 10
139.541250
 20
120.639062
 10
140.289687
 20
120.639062
 10
140.289687
 20
121.935937
 10
138.792812
 20
121.935937
 10
138.792812
 20
120.639062
  0
LWPOLYLINE
  8
0
 62
7
 90
5
 70
1
 10
139.223750
 20
112.093437
 10
138.475313
 20
112.093437
 10
138.475313
 20
110.796562
 10
139.972187
 20
110.796562
 10
139.972187
 20
112.093437
  0
LWPOLYLINE
  8
0
 62
7
 90
5
 70
1
 10
139.223750
 20
113.993437
 10
138.475313
 20
113.993437
 10
138.475313
 20
112.696562
 10
139.972187
 20
112.696562
 10
139.972187
 20
113.993437
  0
LWPOLYLINE
  8
0
 62
7
 90
5
 70
1
 10
131.603750
 20
112.696562
 10
132.352187
 20
112.696562
 10
132.352187
 20
113.993437
 10
130.855312
 20
113.993437
 10
130.855312
 20
112.696562
  0
LWPOLYLINE
  8
0
 62
7
 90
5
 70
1
 10
131.603750
 20
110.796562
 10
132.352187
 20
110.796562
 10
132.352187
 20
112.093437
 10
130.855312
 20
112.093437
 10
130.855312
 20
110.796562
  0
LWPOLYLINE
  8
0
 62
7
 90
5
 70
1
 10
34.601150
 20
6.234138
 10
33.802612
 20
6.234138
 10
33.802612
 20
5.068863
 10
35.399687
 20
5.068863
 10
35.399687
 20
6.234138
  0
LWPOLYLINE
  8
0
 62
7
 90
5
 70
1
 10
34.601150
 20
7.758138
 10
33.802612
 20
7.758138
 10
33.802612
 20
6.592863
 10
35.399687
 20
6.592863
 10
35.399687
 20
7.758138
  0
LWPOLYLINE
  8
0
 62
7
 90
5
 70
1
 10
85.797450
 20
19.908112
 10
86.545887
 20
19.908112
 10
86.545887
 20
21.404988
 10
85.049013
 20
21.404988
 10
85.049013
 20
19.908112
  0
LWPOLYLINE
  8
0
 62
7
 90
5
 70
1
 10
89.297450
 20
19.908112
 10
90.045887
 20
19.908112
 10
90.045887
 20
21.404988
 10
88.549013
 20
21.404988
 10
88.549013
 20
19.908112
  0
LWPOLYLINE
  8
0
 62
7
 90
5
 70
1
 10
119.312750
 20
19.984312
 10
120.061187
 20
19.984312
 10
120.061187
 20
21.481188
 10
118.564312
 20
21.481188
 10
118.564312
 20
19.984312
  0
LWPOLYLINE
  8
0
 62
7
 90
5
 70
1
 10
122.812750
 20
19.984312
 10
123.561187
 20
19.984312
 10
123.561187
 20
21.481188
 10
122.064312
 20
21.481188
 10
122.064312
 20
19.984312
  0
LWPOLYLINE
  8
0
 62
7
 90
5
 70
1
 10
132.478487
 20
142.398750
 10
132.478487
 20
142.663888
 10
130.932213
 20
142.663888
 10
130.932213
 20
142.133612
 10
132.478487
 20
142.133612
  0
LWPOLYLINE
  8
0
 62
7
 90
5
 70
1
 10
132.478487
 20
141.128750
 10
132.478487
 20
141.393888
 10
130.932213
 20
141.393888
 10
130.932213
 20
140.863612
 10
132.478487
 20
140.863612
  0
LWPOLYLINE
  8
0
 62
7
 90
5
 70
1
 10
132.478487
 20
139.858750
 10
132.478487
 20
140.123887
 10
130.932213
 20
140.123887
 10
130.932213
 20
139.593612
 10
132.478487
 20
139.593612
  0
LWPOLYLINE
  8
0
 62
7
 90
5
 70
1
 10
132.478487
 20
138.588750
 10
132.478487
 20
138.853888
 10
130.932213
 20
138.853888
 10
130.932213
 20
138.323612
 10
132.478487
 20
138.323612
  0
LWPOLYLINE
  8
0
 62
7
 90
5
 70
1
 10
139.895287
 20
138.588750
 10
139.895287
 20
138.853888
 10
138.349013
 20
138.853888
 10
138.349013
 20
138.323612
 10
139.895287
 20
138.323612
  0
LWPOLYLINE
  8
0
 62
7
 90
5
 70
1
 10
139.895287
 20
139.858750
 10
139.895287
 20
140.123887
 10
138.349013
 20
140.123887
 10
138.349013
 20
139.593612
 10
139.895287
 20
139.593612
  0
LWPOLYLINE
  8
0
 62
7
 90
5
 70
1
 10
139.895287
 20
141.128750
 10
139.895287
 20
141.393888
 10
138.349013
 20
141.393888
 10
138.349013
 20
140.863612
 10
139.895287
 20
140.863612
  0
LWPOLYLINE
  8
0
 62
7
 90
5
 70
1
 10
139.895287
 20
142.398750
 10
139.895287
 20
142.663888
 10
138.349013
 20
142.663888
 10
138.349013
 20
142.133612
 10
139.895287
 20
142.133612
  0
LWPOLYLINE
  8
0
 62
7
 90
5
 70
1
 10
132.478487
 20
73.660000
 10
132.478487
 20
73.925137
 10
130.932213
 20
73.925137
 10
130.932213
 20
73.394863
 10
132.478487
 20
73.394863
  0
LWPOLYLINE
  8
0
 62
7
 90
5
 70
1
 10
132.478487
 20
72.390000
 10
132.478487
 20
72.655137
 10
130.932213
 20
72.655137
 10
130.932213
 20
72.124863
 10
132.478487
 20
72.124863
  0
LWPOLYLINE
  8
0
 62
7
 90
5
 70
1
 10
132.478487
 20
71.120000
 10
132.478487
 20
71.385137
 10
130.932213
 20
71.385137
 10
130.932213
 20
70.854863
 10
132.478487
 20
70.854863
  0
LWPOLYLINE
  8
0
 62
7
 90
5
 70
1
 10
132.478487
 20
69.850000
 10
132.478487
 20
70.115137
 10
130.932213
 20
70.115137
 10
130.932213
 20
69.584862
 10
132.478487
 20
69.584862
  0
LWPOLYLINE
  8
0
 62
7
 90
5
 70
1
 10
139.895287
 20
69.850000
 10
139.895287
 20
70.115137
 10
138.349013
 20
70.115137
 10
138.349013
 20
69.584862
 10
139.895287
 20
69.584862
  0
LWPOLYLINE
  8
0
 62
7
 90
5
 70
1
 10
139.895287
 20
71.120000
 10
139.895287
 20
71.385137
 10
138.349013
 20
71.385137
 10
138.349013
 20
70.854863
 10
139.895287
 20
70.854863
  0
LWPOLYLINE
  8
0
 62
7
 90
5
 70
1
 10
139.895287
 20
72.390000
 10
139.895287
 20
72.655137
 10
138.349013
 20
72.655137
 10
138.349013
 20
72.124863
 10
139.895287
 20
72.124863
  0
LWPOLYLINE
  8
0
 62
7
 90
5
 70
1
 10
139.895287
 20
73.660000
 10
139.895287
 20
73.925137
 10
138.349013
 20
73.925137
 10
138.349013
 20
73.394863
 10
139.895287
 20
73.394863
  0
LWPOLYLINE
  8
0
 62
7
 90
5
 70
1
 10
132.478487
 20
96.837500
 10
132.478487
 20
97.102638
 10
130.932213
 20
97.102638
 10
130.932213
 20
96.572363
 10
132.478487
 20
96.572363
  0
LWPOLYLINE
  8
0
 62
7
 90
5
 70
1
 10
132.478487
 20
95.567500
 10
132.478487
 20
95.832637
 10
130.932213
 20
95.832637
 10
130.932213
 20
95.302363
 10
132.478487
 20
95.302363
  0
LWPOLYLINE
  8
0
 62
7
 90
5
 70
1
 10
132.478487
 20
94.297500
 10
132.478487
 20
94.562637
 10
130.932213
 20
94.562637
 10
130.932213
 20
94.032363
 10
132.478487
 20
94.032363
  0
LWPOLYLINE
  8
0
 62
7
 90
5
 70
1
 10
132.478487
 20
93.027500
 10
132.478487
 20
93.292637
 10
130.932213
 20
93.292637
 10
130.932213
 20
92.762363
 10
132.478487
 20
92.762363
  0
LWPOLYLINE
  8
0
 62
7
 90
5
 70
1
 10
139.895287
 20
93.027500
 10
139.895287
 20
93.292637
 10
138.349013
 20
93.292637
 10
138.349013
 20
92.762363
 10
139.895287
 20
92.762363
  0
LWPOLYLINE
  8
0
 62
7
 90
5
 70
1
 10
139.895287
 20
94.297500
 10
139.895287
 20
94.562637
 10
138.349013
 20
94.562637
 10
138.349013
 20
94.032363
 10
139.895287
 20
94.032363
  0
LWPOLYLINE
  8
0
 62
7
 90
5
 70
1
 10
139.895287
 20
95.567500
 10
139.895287
 20
95.832637
 10
138.349013
 20
95.832637
 10
138.349013
 20
95.302363
 10
139.895287
 20
95.302363
  0
LWPOLYLINE
  8
0
 62
7
 90
5
 70
1
 10
139.895287
 20
96.837500
 10
139.895287
 20
97.102638
 10
138.349013
 20
97.102638
 10
138.349013
 20
96.572363
 10
139.895287
 20
96.572363
  0
LWPOLYLINE
  8
0
 62
7
 90
5
 70
1
 10
132.478487
 20
119.697500
 10
132.478487
 20
119.962637
 10
130.932213
 20
119.962637
 10
130.932213
 20
119.432363
 10
132.478487
 20
119.432363
  0
LWPOLYLINE
  8
0
 62
7
 90
5
 70
1
 10
132.478487
 20
118.427500
 10
132.478487
 20
118.692637
 10
130.932213
 20
118.692637
 10
130.932213
 20
118.162363
 10
132.478487
 20
118.162363
  0
LWPOLYLINE
  8
0
 62
7
 90
5
 70
1
 10
132.478487
 20
117.157500
 10
132.478487
 20
117.422637
 10
130.932213
 20
117.422637
 10
130.932213
 20
116.892363
 10
132.478487
 20
116.892363
  0
LWPOLYLINE
  8
0
 62
7
 90
5
 70
1
 10
132.478487
 20
115.887500
 10
132.478487
 20
116.152637
 10
130.932213
 20
116.152637
 10
130.932213
 20
115.622363
 10
132.478487
 20
115.622363
  0
LWPOLYLINE
  8
0
 62
7
 90
5
 70
1
 10
139.895287
 20
115.887500
 10
139.895287
 20
116.152637
 10
138.349013
 20
116.152637
 10
138.349013
 20
115.622363
 10
139.895287
 20
115.622363
  0
LWPOLYLINE
  8
0
 62
7
 90
5
 70
1
 10
139.895287
 20
117.157500
 10
139.895287
 20
117.422637
 10
138.349013
 20
117.422637
 10
138.349013
 20
116.892363
 10
139.895287
 20
116.892363
  0
LWPOLYLINE
  8
0
 62
7
 90
5
 70
1
 10
139.895287
 20
118.427500
 10
139.895287
 20
118.692637
 10
138.349013
 20
118.692637
 10
138.349013
 20
118.162363
 10
139.895287
 20
118.162363
  0
LWPOLYLINE
  8
0
 62
7
 90
5
 70
1
 10
139.895287
 20
119.697500
 10
139.895287
 20
119.962637
 10
138.349013
 20
119.962637
 10
138.349013
 20
119.432363
 10
139.895287
 20
119.432363
  0
ENDSEC
  0
EOF
