  0
SECTION
  2
HEADER
  9
$ACADVER
  1
AC1009
  9
$MEASUREMENT
 70
     1
  0
ENDSEC
  0
SECTION
  2
ENTITIES
  0
LWPOLYLINE
  8
0
 62
7
 90
5
 70
1
 10
20.504150
 20
23.282338
 10
19.755712
 20
23.282338
 10
19.755712
 20
21.985463
 10
21.252588
 20
21.985463
 10
21.252588
 20
23.282338
  0
LWPOLYLINE
  8
0
 62
7
 90
5
 70
1
 10
20.504150
 20
25.182337
 10
19.755712
 20
25.182337
 10
19.755712
 20
23.885462
 10
21.252588
 20
23.885462
 10
21.252588
 20
25.182337
  0
LWPOLYLINE
  8
0
 62
7
 90
5
 70
1
 10
139.852400
 20
30.457838
 10
139.103962
 20
30.457838
 10
139.103962
 20
29.160963
 10
140.600837
 20
29.160963
 10
140.600837
 20
30.457838
  0
LWPOLYLINE
  8
0
 62
7
 90
5
 70
1
 10
139.852400
 20
32.357838
 10
139.103962
 20
32.357838
 10
139.103962
 20
31.060962
 10
140.600837
 20
31.060962
 10
140.600837
 20
32.357838
  0
LWPOLYLINE
  8
0
 62
7
 90
5
 70
1
 10
145.276862
 20
22.402800
 10
145.276862
 20
21.858262
 10
149.337738
 20
21.858262
 10
149.337738
 20
22.947337
 10
145.276862
 20
22.947337
  0
LWPOLYLINE
  8
0
 62
7
 90
5
 70
1
 10
139.028462
 20
22.402800
 10
139.028462
 20
21.858262
 10
143.089337
 20
21.858262
 10
143.089337
 20
22.947337
 10
139.028462
 20
22.947337
  0
LWPOLYLINE
  8
0
 62
7
 90
5
 70
1
 10
60.007500
 20
81.930937
 10
59.259062
 20
81.930937
 10
59.259062
 20
80.634062
 10
60.755938
 20
80.634062
 10
60.755938
 20
81.930937
  0
LWPOLYLINE
  8
0
 62
7
 90
5
 70
1
 10
60.007500
 20
83.830938
 10
59.259062
 20
83.830938
 10
59.259062
 20
82.534063
 10
60.755938
 20
82.534063
 10
60.755938
 20
83.830938
  0
LWPOLYLINE
  8
0
 62
7
 90
5
 70
1
 10
4.022663
 20
22.263100
 10
4.022663
 20
21.514663
 10
5.319538
 20
21.514663
 10
5.319538
 20
23.011538
 10
4.022663
 20
23.011538
  0
LWPOLYLINE
  8
0
 62
7
 90
5
 70
1
 10
2.122663
 20
22.263100
 10
2.122663
 20
21.514663
 10
3.419538
 20
21.514663
 10
3.419538
 20
23.011538
 10
2.122663
 20
23.011538
  0
LWPOLYLINE
  8
0
 62
7
 90
5
 70
1
 10
23.190200
 20
12.360212
 10
23.938638
 20
12.360212
 10
23.938638
 20
13.657087
 10
22.441762
 20
13.657087
 10
22.441762
 20
12.360212
  0
LWPOLYLINE
  8
0
 62
7
 90
5
 70
1
 10
23.190200
 20
10.460213
 10
23.938638
 20
10.460213
 10
23.938638
 20
11.757088
 10
22.441762
 20
11.757088
 10
22.441762
 20
10.460213
  0
LWPOLYLINE
  8
0
 62
7
 90
5
 70
1
 10
30.454600
 20
2.689287
 10
29.706162
 20
2.689287
 10
29.706162
 20
1.392412
 10
31.203038
 20
1.392412
 10
31.203038
 20
2.689287
  0
LWPOLYLINE
  8
0
 62
7
 90
5
 70
1
 10
30.454600
 20
4.589288
 10
29.706162
 20
4.589288
 10
29.706162
 20
3.292413
 10
31.203038
 20
3.292413
 10
31.203038
 20
4.589288
  0
LWPOLYLINE
  8
0
 62
7
 90
5
 70
1
 10
21.545550
 20
3.330513
 10
22.293988
 20
3.330513
 10
22.293988
 20
4.627388
 10
20.797112
 20
4.627388
 10
20.797112
 20
3.330513
  0
LWPOLYLINE
  8
0
 62
7
 90
5
 70
1
 10
21.545550
 20
1.430512
 10
22.293988
 20
1.430512
 10
22.293988
 20
2.727387
 10
20.797112
 20
2.727387
 10
20.797112
 20
1.430513
  0
LWPOLYLINE
  8
0
 62
7
 90
5
 70
1
 10
139.903200
 20
34.242438
 10
139.154763
 20
34.242438
 10
139.154763
 20
32.945563
 10
140.651637
 20
32.945563
 10
140.651637
 20
34.242438
  0
LWPOLYLINE
  8
0
 62
7
 90
5
 70
1
 10
139.903200
 20
36.142437
 10
139.154763
 20
36.142437
 10
139.154763
 20
34.845562
 10
140.651637
 20
34.845562
 10
140.651637
 20
36.142437
  0
LWPOLYLINE
  8
0
 62
7
 90
5
 70
1
 10
143.483037
 20
43.167300
 10
143.483037
 20
43.711837
 10
139.422162
 20
43.711837
 10
139.422162
 20
42.622763
 10
143.483037
 20
42.622763
  0
LWPOLYLINE
  8
0
 62
7
 90
5
 70
1
 10
149.731437
 20
43.167300
 10
149.731437
 20
43.711837
 10
145.670562
 20
43.711837
 10
145.670562
 20
42.622763
 10
149.731437
 20
42.622763
  0
LWPOLYLINE
  8
0
 62
7
 90
5
 70
1
 10
91.440000
 20
139.080938
 10
90.691563
 20
139.080938
 10
90.691563
 20
137.784063
 10
92.188437
 20
137.784063
 10
92.188437
 20
139.080938
  0
LWPOLYLINE
  8
0
 62
7
 90
5
 70
1
 10
91.440000
 20
140.980938
 10
90.691563
 20
140.980938
 10
90.691563
 20
139.684063
 10
92.188437
 20
139.684063
 10
92.188437
 20
140.980938
  0
LWPOLYLINE
  8
0
 62
7
 90
5
 70
1
 10
139.257188
 20
132.556250
 10
139.257188
 20
133.454688
 10
137.660313
 20
133.454688
 10
137.660313
 20
131.657813
 10
139.257188
 20
131.657813
  0
LWPOLYLINE
  8
0
 62
7
 90
5
 70
1
 10
142.057187
 20
132.556250
 10
142.057187
 20
133.454688
 10
140.460312
 20
133.454688
 10
140.460312
 20
131.657813
 10
142.057187
 20
131.657813
  0
LWPOLYLINE
  8
0
 62
7
 90
5
 70
1
 10
139.257188
 20
63.817500
 10
139.257188
 20
64.715937
 10
137.660313
 20
64.715937
 10
137.660313
 20
62.919063
 10
139.257188
 20
62.919063
  0
LWPOLYLINE
  8
0
 62
7
 90
5
 70
1
 10
142.057187
 20
63.817500
 10
142.057187
 20
64.715937
 10
140.460312
 20
64.715937
 10
140.460312
 20
62.919063
 10
142.057187
 20
62.919063
  0
LWPOLYLINE
  8
0
 62
7
 90
5
 70
1
 10
139.257188
 20
86.995000
 10
139.257188
 20
87.893438
 10
137.660313
 20
87.893438
 10
137.660313
 20
86.096563
 10
139.257188
 20
86.096563
  0
LWPOLYLINE
  8
0
 62
7
 90
5
 70
1
 10
142.057187
 20
86.995000
 10
142.057187
 20
87.893438
 10
140.460312
 20
87.893438
 10
140.460312
 20
86.096563
 10
142.057187
 20
86.096563
  0
LWPOLYLINE
  8
0
 62
7
 90
5
 70
1
 10
139.257188
 20
109.855000
 10
139.257188
 20
110.753438
 10
137.660313
 20
110.753438
 10
137.660313
 20
108.956563
 10
139.257188
 20
108.956563
  0
LWPOLYLINE
  8
0
 62
7
 90
5
 70
1
 10
142.057187
 20
109.855000
 10
142.057187
 20
110.753438
 10
140.460312
 20
110.753438
 10
140.460312
 20
108.956563
 10
142.057187
 20
108.956563
  0
LWPOLYLINE
  8
0
 62
7
 90
5
 70
1
 10
70.192900
 20
96.429537
 10
70.016662
 20
96.429537
 10
70.016662
 20
95.315062
 10
70.369137
 20
95.315062
 10
70.369137
 20
96.429537
  0
LWPOLYLINE
  8
0
 62
7
 90
5
 70
1
 10
69.532500
 20
96.429537
 10
69.356262
 20
96.429537
 10
69.356262
 20
95.315062
 10
69.708737
 20
95.315062
 10
69.708737
 20
96.429537
  0
LWPOLYLINE
  8
0
 62
7
 90
5
 70
1
 10
68.872100
 20
96.429537
 10
68.695863
 20
96.429537
 10
68.695863
 20
95.315062
 10
69.048338
 20
95.315062
 10
69.048338
 20
96.429537
  0
LWPOLYLINE
  8
0
 62
7
 90
5
 70
1
 10
68.872100
 20
98.359938
 10
68.695863
 20
98.359938
 10
68.695863
 20
97.245463
 10
69.048338
 20
97.245463
 10
69.048338
 20
98.359938
  0
LWPOLYLINE
  8
0
 62
7
 90
5
 70
1
 10
69.532500
 20
98.359938
 10
69.356262
 20
98.359938
 10
69.356262
 20
97.245463
 10
69.708737
 20
97.245463
 10
69.708737
 20
98.359938
  0
LWPOLYLINE
  8
0
 62
7
 90
5
 70
1
 10
70.192900
 20
98.359938
 10
70.016662
 20
98.359938
 10
70.016662
 20
97.245463
 10
70.369137
 20
97.245463
 10
70.369137
 20
98.359938
  0
LWPOLYLINE
  8
0
 62
7
 90
5
 70
1
 10
26.327100
 20
81.687962
 10
26.503338
 20
81.687962
 10
26.503338
 20
82.802437
 10
26.150863
 20
82.802437
 10
26.150863
 20
81.687962
  0
LWPOLYLINE
  8
0
 62
7
 90
5
 70
1
 10
26.987500
 20
81.687962
 10
27.163737
 20
81.687962
 10
27.163737
 20
82.802437
 10
26.811263
 20
82.802437
 10
26.811263
 20
81.687962
  0
LWPOLYLINE
  8
0
 62
7
 90
5
 70
1
 10
27.647900
 20
81.687962
 10
27.824137
 20
81.687962
 10
27.824137
 20
82.802437
 10
27.471663
 20
82.802437
 10
27.471663
 20
81.687962
  0
LWPOLYLINE
  8
0
 62
7
 90
5
 70
1
 10
27.647900
 20
79.757563
 10
27.824137
 20
79.757563
 10
27.824137
 20
80.872038
 10
27.471663
 20
80.872038
 10
27.471663
 20
79.757563
  0
LWPOLYLINE
  8
0
 62
7
 90
5
 70
1
 10
26.987500
 20
79.757563
 10
27.163737
 20
79.757563
 10
27.163737
 20
80.872038
 10
26.811263
 20
80.872038
 10
26.811263
 20
79.757563
  0
LWPOLYLINE
  8
0
 62
7
 90
5
 70
1
 10
26.327100
 20
79.757563
 10
26.503338
 20
79.757563
 10
26.503338
 20
80.872038
 10
26.150863
 20
80.872038
 10
26.150863
 20
79.757563
  0
LWPOLYLINE
  8
0
 62
7
 90
5
 70
1
 10
43.472100
 20
81.687962
 10
43.648337
 20
81.687962
 10
43.648337
 20
82.802437
 10
43.295862
 20
82.802437
 10
43.295862
 20
81.687962
  0
LWPOLYLINE
  8
0
 62
7
 90
5
 70
1
 10
44.132500
 20
81.687962
 10
44.308737
 20
81.687962
 10
44.308737
 20
82.802437
 10
43.956263
 20
82.802437
 10
43.956263
 20
81.687962
  0
LWPOLYLINE
  8
0
 62
7
 90
5
 70
1
 10
44.792900
 20
81.687962
 10
44.969138
 20
81.687962
 10
44.969138
 20
82.802437
 10
44.616663
 20
82.802437
 10
44.616663
 20
81.687962
  0
LWPOLYLINE
  8
0
 62
7
 90
5
 70
1
 10
44.792900
 20
79.757563
 10
44.969138
 20
79.757563
 10
44.969138
 20
80.872038
 10
44.616663
 20
80.872038
 10
44.616663
 20
79.757563
  0
LWPOLYLINE
  8
0
 62
7
 90
5
 70
1
 10
44.132500
 20
79.757563
 10
44.308737
 20
79.757563
 10
44.308737
 20
80.872038
 10
43.956263
 20
80.872038
 10
43.956263
 20
79.757563
  0
LWPOLYLINE
  8
0
 62
7
 90
5
 70
1
 10
43.472100
 20
79.757563
 10
43.648337
 20
79.757563
 10
43.648337
 20
80.872038
 10
43.295862
 20
80.872038
 10
43.295862
 20
79.757563
  0
LWPOLYLINE
  8
0
 62
7
 90
5
 70
1
 10
10.769600
 20
81.687962
 10
10.945837
 20
81.687962
 10
10.945837
 20
82.802437
 10
10.593363
 20
82.802437
 10
10.593363
 20
81.687962
  0
LWPOLYLINE
  8
0
 62
7
 90
5
 70
1
 10
11.430000
 20
81.687962
 10
11.606237
 20
81.687962
 10
11.606237
 20
82.802437
 10
11.253763
 20
82.802437
 10
11.253763
 20
81.687962
  0
LWPOLYLINE
  8
0
 62
7
 90
5
 70
1
 10
12.090400
 20
81.687962
 10
12.266637
 20
81.687962
 10
12.266637
 20
82.802437
 10
11.914163
 20
82.802437
 10
11.914163
 20
81.687962
  0
LWPOLYLINE
  8
0
 62
7
 90
5
 70
1
 10
12.090400
 20
79.757563
 10
12.266637
 20
79.757563
 10
12.266637
 20
80.872038
 10
11.914163
 20
80.872038
 10
11.914163
 20
79.757563
  0
LWPOLYLINE
  8
0
 62
7
 90
5
 70
1
 10
11.430000
 20
79.757563
 10
11.606237
 20
79.757563
 10
11.606237
 20
80.872038
 10
11.253763
 20
80.872038
 10
11.253763
 20
79.757563
  0
LWPOLYLINE
  8
0
 62
7
 90
5
 70
1
 10
10.769600
 20
79.757563
 10
10.945837
 20
79.757563
 10
10.945837
 20
80.872038
 10
10.593363
 20
80.872038
 10
10.593363
 20
79.757563
  0
LWPOLYLINE
  8
0
 62
7
 90
5
 70
1
 10
16.737037
 20
96.177100
 10
16.737037
 20
96.353337
 10
15.622563
 20
96.353337
 10
15.622563
 20
96.000862
 10
16.737037
 20
96.000862
  0
LWPOLYLINE
  8
0
 62
7
 90
5
 70
1
 10
16.737037
 20
96.837500
 10
16.737037
 20
97.013738
 10
15.622563
 20
97.013738
 10
15.622563
 20
96.661263
 10
16.737037
 20
96.661263
  0
LWPOLYLINE
  8
0
 62
7
 90
5
 70
1
 10
16.737037
 20
97.497900
 10
16.737037
 20
97.674138
 10
15.622563
 20
97.674138
 10
15.622563
 20
97.321663
 10
16.737037
 20
97.321663
  0
LWPOLYLINE
  8
0
 62
7
 90
5
 70
1
 10
18.667437
 20
97.497900
 10
18.667437
 20
97.674138
 10
17.552962
 20
97.674138
 10
17.552962
 20
97.321663
 10
18.667437
 20
97.321663
  0
LWPOLYLINE
  8
0
 62
7
 90
5
 70
1
 10
18.667437
 20
96.837500
 10
18.667437
 20
97.013738
 10
17.552962
 20
97.013738
 10
17.552962
 20
96.661263
 10
18.667437
 20
96.661263
  0
LWPOLYLINE
  8
0
 62
7
 90
5
 70
1
 10
18.667437
 20
96.177100
 10
18.667437
 20
96.353337
 10
17.552962
 20
96.353337
 10
17.552962
 20
96.000862
 10
18.667437
 20
96.000862
  0
LWPOLYLINE
  8
0
 62
7
 90
5
 70
1
 10
52.614537
 20
96.177100
 10
52.614537
 20
96.353337
 10
51.500062
 20
96.353337
 10
51.500062
 20
96.000862
 10
52.614537
 20
96.000862
  0
LWPOLYLINE
  8
0
 62
7
 90
5
 70
1
 10
52.614537
 20
96.837500
 10
52.614537
 20
97.013738
 10
51.500062
 20
97.013738
 10
51.500062
 20
96.661263
 10
52.614537
 20
96.661263
  0
LWPOLYLINE
  8
0
 62
7
 90
5
 70
1
 10
52.614537
 20
97.497900
 10
52.614537
 20
97.674138
 10
51.500062
 20
97.674138
 10
51.500062
 20
97.321663
 10
52.614537
 20
97.321663
  0
LWPOLYLINE
  8
0
 62
7
 90
5
 70
1
 10
54.544937
 20
97.497900
 10
54.544937
 20
97.674138
 10
53.430462
 20
97.674138
 10
53.430462
 20
97.321663
 10
54.544937
 20
97.321663
  0
LWPOLYLINE
  8
0
 62
7
 90
5
 70
1
 10
54.544937
 20
96.837500
 10
54.544937
 20
97.013738
 10
53.430462
 20
97.013738
 10
53.430462
 20
96.661263
 10
54.544937
 20
96.661263
  0
LWPOLYLINE
  8
0
 62
7
 90
5
 70
1
 10
54.544937
 20
96.177100
 10
54.544937
 20
96.353337
 10
53.430462
 20
96.353337
 10
53.430462
 20
96.000862
 10
54.544937
 20
96.000862
  0
LWPOLYLINE
  8
0
 62
7
 90
5
 70
1
 10
86.017100
 20
128.995462
 10
86.193337
 20
128.995462
 10
86.193337
 20
130.109938
 10
85.840863
 20
130.109938
 10
85.840863
 20
128.995462
  0
LWPOLYLINE
  8
0
 62
7
 90
5
 70
1
 10
86.677500
 20
128.995462
 10
86.853737
 20
128.995462
 10
86.853737
 20
130.109938
 10
86.501262
 20
130.109938
 10
86.501262
 20
128.995462
  0
LWPOLYLINE
  8
0
 62
7
 90
5
 70
1
 10
87.337900
 20
128.995462
 10
87.514138
 20
128.995462
 10
87.514138
 20
130.109938
 10
87.161663
 20
130.109938
 10
87.161663
 20
128.995462
  0
LWPOLYLINE
  8
0
 62
7
 90
5
 70
1
 10
87.337900
 20
127.065062
 10
87.514138
 20
127.065062
 10
87.514138
 20
128.179538
 10
87.161663
 20
128.179538
 10
87.161663
 20
127.065062
  0
LWPOLYLINE
  8
0
 62
7
 90
5
 70
1
 10
86.677500
 20
127.065062
 10
86.853737
 20
127.065062
 10
86.853737
 20
128.179538
 10
86.501262
 20
128.179538
 10
86.501262
 20
127.065062
  0
LWPOLYLINE
  8
0
 62
7
 90
5
 70
1
 10
86.017100
 20
127.065062
 10
86.193337
 20
127.065062
 10
86.193337
 20
128.179538
 10
85.840863
 20
128.179538
 10
85.840863
 20
127.065062
  0
LWPOLYLINE
  8
0
 62
7
 90
5
 70
1
 10
102.642962
 20
122.897900
 10
102.642962
 20
122.721663
 10
103.757437
 20
122.721663
 10
103.757437
 20
123.074138
 10
102.642962
 20
123.074138
  0
LWPOLYLINE
  8
0
 62
7
 90
5
 70
1
 10
102.642962
 20
122.237500
 10
102.642962
 20
122.061262
 10
103.757437
 20
122.061262
 10
103.757437
 20
122.413737
 10
102.642962
 20
122.413737
  0
LWPOLYLINE
  8
0
 62
7
 90
5
 70
1
 10
102.642962
 20
121.577100
 10
102.642962
 20
121.400863
 10
103.757437
 20
121.400863
 10
103.757437
 20
121.753338
 10
102.642962
 20
121.753338
  0
LWPOLYLINE
  8
0
 62
7
 90
5
 70
1
 10
100.712563
 20
121.577100
 10
100.712563
 20
121.400863
 10
101.827038
 20
121.400863
 10
101.827038
 20
121.753338
 10
100.712563
 20
121.753338
  0
LWPOLYLINE
  8
0
 62
7
 90
5
 70
1
 10
100.712563
 20
122.237500
 10
100.712563
 20
122.061262
 10
101.827038
 20
122.061262
 10
101.827038
 20
122.413737
 10
100.712563
 20
122.413737
  0
LWPOLYLINE
  8
0
 62
7
 90
5
 70
1
 10
100.712563
 20
122.897900
 10
100.712563
 20
122.721663
 10
101.827038
 20
122.721663
 10
101.827038
 20
123.074138
 10
100.712563
 20
123.074138
  0
LWPOLYLINE
  8
0
 62
7
 90
5
 70
1
 10
42.952962
 20
76.542900
 10
42.952962
 20
76.366663
 10
44.067437
 20
76.366663
 10
44.067437
 20
76.719138
 10
42.952962
 20
76.719138
  0
LWPOLYLINE
  8
0
 62
7
 90
5
 70
1
 10
42.952962
 20
75.882500
 10
42.952962
 20
75.706262
 10
44.067437
 20
75.706262
 10
44.067437
 20
76.058737
 10
42.952962
 20
76.058737
  0
LWPOLYLINE
  8
0
 62
7
 90
5
 70
1
 10
42.952962
 20
75.222100
 10
42.952962
 20
75.045862
 10
44.067437
 20
75.045862
 10
44.067437
 20
75.398337
 10
42.952962
 20
75.398337
  0
LWPOLYLINE
  8
0
 62
7
 90
5
 70
1
 10
41.022562
 20
75.222100
 10
41.022562
 20
75.045862
 10
42.137037
 20
75.045862
 10
42.137037
 20
75.398337
 10
41.022562
 20
75.398337
  0
LWPOLYLINE
  8
0
 62
7
 90
5
 70
1
 10
41.022562
 20
75.882500
 10
41.022562
 20
75.706262
 10
42.137037
 20
75.706262
 10
42.137037
 20
76.058737
 10
41.022562
 20
76.058737
  0
LWPOLYLINE
  8
0
 62
7
 90
5
 70
1
 10
41.022562
 20
76.542900
 10
41.022562
 20
76.366663
 10
42.137037
 20
76.366663
 10
42.137037
 20
76.719138
 10
41.022562
 20
76.719138
  0
LWPOLYLINE
  8
0
 62
7
 90
5
 70
1
 10
2.832100
 20
73.432963
 10
3.008338
 20
73.432963
 10
3.008338
 20
74.547438
 10
2.655863
 20
74.547438
 10
2.655863
 20
73.432963
  0
LWPOLYLINE
  8
0
 62
7
 90
5
 70
1
 10
3.492500
 20
73.432963
 10
3.668738
 20
73.432963
 10
3.668738
 20
74.547438
 10
3.316263
 20
74.547438
 10
3.316263
 20
73.432963
  0
LWPOLYLINE
  8
0
 62
7
 90
5
 70
1
 10
4.152900
 20
73.432963
 10
4.329137
 20
73.432963
 10
4.329137
 20
74.547438
 10
3.976662
 20
74.547438
 10
3.976662
 20
73.432963
  0
LWPOLYLINE
  8
0
 62
7
 90
5
 70
1
 10
4.152900
 20
71.502562
 10
4.329137
 20
71.502562
 10
4.329137
 20
72.617037
 10
3.976662
 20
72.617037
 10
3.976662
 20
71.502562
  0
LWPOLYLINE
  8
0
 62
7
 90
5
 70
1
 10
3.492500
 20
71.502562
 10
3.668738
 20
71.502562
 10
3.668738
 20
72.617037
 10
3.316263
 20
72.617037
 10
3.316263
 20
71.502562
  0
LWPOLYLINE
  8
0
 62
7
 90
5
 70
1
 10
2.832100
 20
71.502562
 10
3.008338
 20
71.502562
 10
3.008338
 20
72.617037
 10
2.655863
 20
72.617037
 10
2.655863
 20
71.502562
  0
LWPOLYLINE
  8
0
 62
7
 90
5
 70
1
 10
88.809538
 20
92.049600
 10
88.809538
 20
92.225837
 10
87.695063
 20
92.225837
 10
87.695063
 20
91.873362
 10
88.809538
 20
91.873362
  0
LWPOLYLINE
  8
0
 62
7
 90
5
 70
1
 10
88.809538
 20
92.710000
 10
88.809538
 20
92.886237
 10
87.695063
 20
92.886237
 10
87.695063
 20
92.533762
 10
88.809538
 20
92.533762
  0
LWPOLYLINE
  8
0
 62
7
 90
5
 70
1
 10
88.809538
 20
93.370400
 10
88.809538
 20
93.546638
 10
87.695063
 20
93.546638
 10
87.695063
 20
93.194163
 10
88.809538
 20
93.194163
  0
LWPOLYLINE
  8
0
 62
7
 90
5
 70
1
 10
90.739937
 20
93.370400
 10
90.739937
 20
93.546638
 10
89.625462
 20
93.546638
 10
89.625462
 20
93.194163
 10
90.739937
 20
93.194163
  0
LWPOLYLINE
  8
0
 62
7
 90
5
 70
1
 10
90.739937
 20
92.710000
 10
90.739937
 20
92.886237
 10
89.625462
 20
92.886237
 10
89.625462
 20
92.533762
 10
90.739937
 20
92.533762
  0
LWPOLYLINE
  8
0
 62
7
 90
5
 70
1
 10
90.739937
 20
92.049600
 10
90.739937
 20
92.225837
 10
89.625462
 20
92.225837
 10
89.625462
 20
91.873362
 10
90.739937
 20
91.873362
  0
LWPOLYLINE
  8
0
 62
7
 90
5
 70
1
 10
147.818862
 20
28.016800
 10
147.818862
 20
27.218363
 10
148.815737
 20
27.218363
 10
148.815737
 20
28.815237
 10
147.818862
 20
28.815237
  0
LWPOLYLINE
  8
0
 62
7
 90
5
 70
1
 10
143.258862
 20
28.016800
 10
143.258862
 20
27.218363
 10
144.255737
 20
27.218363
 10
144.255737
 20
28.815237
 10
143.258862
 20
28.815237
  0
LWPOLYLINE
  8
0
 62
7
 90
5
 70
1
 10
143.338862
 20
35.316800
 10
143.338862
 20
32.218362
 10
148.735737
 20
32.218362
 10
148.735737
 20
38.415238
 10
143.338862
 20
38.415238
  0
LWPOLYLINE
  8
0
 62
7
 90
5
 70
1
 10
91.398438
 20
102.552500
 10
91.398438
 20
103.300937
 10
89.901563
 20
103.300937
 10
89.901563
 20
101.804063
 10
91.398438
 20
101.804063
  0
LWPOLYLINE
  8
0
 62
7
 90
5
 70
1
 10
87.898438
 20
102.552500
 10
87.898438
 20
103.300937
 10
86.401563
 20
103.300937
 10
86.401563
 20
101.804063
 10
87.898438
 20
101.804063
  0
LWPOLYLINE
  8
0
 62
7
 90
5
 70
1
 10
80.495487
 20
2.336800
 10
80.495487
 20
3.085238
 10
78.998613
 20
3.085238
 10
78.998613
 20
1.588363
 10
80.495487
 20
1.588363
  0
LWPOLYLINE
  8
0
 62
7
 90
5
 70
1
 10
76.995487
 20
2.336800
 10
76.995487
 20
3.085238
 10
75.498613
 20
3.085238
 10
75.498613
 20
1.588363
 10
76.995487
 20
1.588363
  0
LWPOLYLINE
  8
0
 62
7
 90
5
 70
1
 10
86.185312
 20
15.163800
 10
86.185312
 20
14.365362
 10
87.482187
 20
14.365362
 10
87.482187
 20
15.962238
 10
86.185312
 20
15.962238
  0
LWPOLYLINE
  8
0
 62
7
 90
5
 70
1
 10
84.285313
 20
15.163800
 10
84.285313
 20
14.365362
 10
85.582188
 20
14.365362
 10
85.582188
 20
15.962238
 10
84.285313
 20
15.962238
  0
LWPOLYLINE
  8
0
 62
7
 90
5
 70
1
 10
119.732362
 20
15.449550
 10
119.732362
 20
14.651112
 10
121.029237
 20
14.651112
 10
121.029237
 20
16.247988
 10
119.732362
 20
16.247988
  0
LWPOLYLINE
  8
0
 62
7
 90
5
 70
1
 10
117.832363
 20
15.449550
 10
117.832363
 20
14.651112
 10
119.129238
 20
14.651112
 10
119.129238
 20
16.247988
 10
117.832363
 20
16.247988
  0
LWPOLYLINE
  8
0
 62
7
 90
5
 70
1
 10
85.017038
 20
4.178300
 10
85.017038
 20
4.976738
 10
83.720163
 20
4.976738
 10
83.720163
 20
3.379863
 10
85.017038
 20
3.379863
  0
LWPOLYLINE
  8
0
 62
7
 90
5
 70
1
 10
86.917038
 20
4.178300
 10
86.917038
 20
4.976738
 10
85.620163
 20
4.976738
 10
85.620163
 20
3.379863
 10
86.917038
 20
3.379863
  0
LWPOLYLINE
  8
0
 62
7
 90
5
 70
1
 10
61.537850
 20
9.274237
 10
60.739413
 20
9.274237
 10
60.739413
 20
7.977362
 10
62.336287
 20
7.977362
 10
62.336287
 20
9.274237
  0
LWPOLYLINE
  8
0
 62
7
 90
5
 70
1
 10
61.537850
 20
11.174238
 10
60.739413
 20
11.174238
 10
60.739413
 20
9.877363
 10
62.336287
 20
9.877363
 10
62.336287
 20
11.174238
  0
LWPOLYLINE
  8
0
 62
7
 90
5
 70
1
 10
7.100937
 20
84.772500
 10
7.100937
 20
85.520937
 10
5.804062
 20
85.520937
 10
5.804062
 20
84.024062
 10
7.100937
 20
84.024062
  0
LWPOLYLINE
  8
0
 62
7
 90
5
 70
1
 10
8.800937
 20
84.772500
 10
8.800937
 20
85.520937
 10
7.504062
 20
85.520937
 10
7.504062
 20
84.024062
 10
8.800937
 20
84.024062
  0
LWPOLYLINE
  8
0
 62
7
 90
5
 70
1
 10
7.100937
 20
86.677500
 10
7.100937
 20
87.425937
 10
5.804062
 20
87.425937
 10
5.804062
 20
85.929063
 10
7.100937
 20
85.929063
  0
LWPOLYLINE
  8
0
 62
7
 90
5
 70
1
 10
8.800937
 20
86.677500
 10
8.800937
 20
87.425937
 10
7.504062
 20
87.425937
 10
7.504062
 20
85.929063
 10
8.800937
 20
85.929063
  0
LWPOLYLINE
  8
0
 62
7
 90
5
 70
1
 10
7.100937
 20
88.582500
 10
7.100937
 20
89.330937
 10
5.804062
 20
89.330937
 10
5.804062
 20
87.834063
 10
7.100937
 20
87.834063
  0
LWPOLYLINE
  8
0
 62
7
 90
5
 70
1
 10
8.800937
 20
88.582500
 10
8.800937
 20
89.330937
 10
7.504062
 20
89.330937
 10
7.504062
 20
87.834063
 10
8.800937
 20
87.834063
  0
LWPOLYLINE
  8
0
 62
7
 90
5
 70
1
 10
105.394063
 20
130.175000
 10
105.394063
 20
129.426563
 10
106.690938
 20
129.426563
 10
106.690938
 20
130.923438
 10
105.394063
 20
130.923438
  0
LWPOLYLINE
  8
0
 62
7
 90
5
 70
1
 10
103.494062
 20
130.175000
 10
103.494062
 20
129.426563
 10
104.790937
 20
129.426563
 10
104.790937
 20
130.923438
 10
103.494062
 20
130.923438
  0
LWPOLYLINE
  8
0
 62
7
 90
5
 70
1
 10
107.616563
 20
122.237500
 10
107.616563
 20
121.489063
 10
108.913438
 20
121.489063
 10
108.913438
 20
122.985937
 10
107.616563
 20
122.985937
  0
LWPOLYLINE
  8
0
 62
7
 90
5
 70
1
 10
105.716562
 20
122.237500
 10
105.716562
 20
121.489063
 10
107.013437
 20
121.489063
 10
107.013437
 20
122.985937
 10
105.716562
 20
122.985937
  0
LWPOLYLINE
  8
0
 62
7
 90
5
 70
1
 10
41.001950
 20
9.185337
 10
40.203513
 20
9.185337
 10
40.203513
 20
7.888462
 10
41.800387
 20
7.888462
 10
41.800387
 20
9.185337
  0
LWPOLYLINE
  8
0
 62
7
 90
5
 70
1
 10
41.001950
 20
11.085337
 10
40.203513
 20
11.085337
 10
40.203513
 20
9.788462
 10
41.800387
 20
9.788462
 10
41.800387
 20
11.085337
  0
LWPOLYLINE
  8
0
 62
7
 90
5
 70
1
 10
45.980350
 20
9.452037
 10
45.181913
 20
9.452037
 10
45.181913
 20
8.155162
 10
46.778787
 20
8.155162
 10
46.778787
 20
9.452037
  0
LWPOLYLINE
  8
0
 62
7
 90
5
 70
1
 10
45.980350
 20
11.352037
 10
45.181913
 20
11.352037
 10
45.181913
 20
10.055162
 10
46.778787
 20
10.055162
 10
46.778787
 20
11.352037
  0
LWPOLYLINE
  8
0
 62
7
 90
5
 70
1
 10
66.522600
 20
9.369487
 10
65.724162
 20
9.369487
 10
65.724162
 20
8.072612
 10
67.321038
 20
8.072612
 10
67.321038
 20
9.369487
  0
LWPOLYLINE
  8
0
 62
7
 90
5
 70
1
 10
66.522600
 20
11.269488
 10
65.724162
 20
11.269488
 10
65.724162
 20
9.972613
 10
67.321038
 20
9.972613
 10
67.321038
 20
11.269488
  0
LWPOLYLINE
  8
0
 62
7
 90
5
 70
1
 10
4.340162
 20
9.823450
 10
4.340162
 20
9.025012
 10
5.637037
 20
9.025012
 10
5.637037
 20
10.621887
 10
4.340162
 20
10.621887
  0
LWPOLYLINE
  8
0
 62
7
 90
5
 70
1
 10
2.440163
 20
9.823450
 10
2.440163
 20
9.025012
 10
3.737038
 20
9.025012
 10
3.737038
 20
10.621887
 10
2.440163
 20
10.621887
  0
LWPOLYLINE
  8
0
 62
7
 90
5
 70
1
 10
2.609850
 20
30.692788
 10
1.811412
 20
30.692788
 10
1.811412
 20
29.395913
 10
3.408287
 20
29.395913
 10
3.408287
 20
30.692788
  0
LWPOLYLINE
  8
0
 62
7
 90
5
 70
1
 10
2.609850
 20
32.592788
 10
1.811412
 20
32.592788
 10
1.811412
 20
31.295913
 10
3.408287
 20
31.295913
 10
3.408287
 20
32.592788
  0
LWPOLYLINE
  8
0
 62
7
 90
5
 70
1
 10
88.466562
 20
63.500000
 10
88.466562
 20
62.751562
 10
89.763437
 20
62.751562
 10
89.763437
 20
64.248437
 10
88.466562
 20
64.248437
  0
LWPOLYLINE
  8
0
 62
7
 90
5
 70
1
 10
86.766563
 20
63.500000
 10
86.766563
 20
62.751562
 10
88.063438
 20
62.751562
 10
88.063438
 20
64.248437
 10
86.766563
 20
64.248437
  0
LWPOLYLINE
  8
0
 62
7
 90
5
 70
1
 10
4.775200
 20
30.781688
 10
3.976762
 20
30.781688
 10
3.976762
 20
29.484813
 10
5.573638
 20
29.484813
 10
5.573638
 20
30.781688
  0
LWPOLYLINE
  8
0
 62
7
 90
5
 70
1
 10
4.775200
 20
32.681688
 10
3.976762
 20
32.681688
 10
3.976762
 20
31.384813
 10
5.573638
 20
31.384813
 10
5.573638
 20
32.681688
  0
LWPOLYLINE
  8
0
 62
7
 90
5
 70
1
 10
14.331950
 20
4.213163
 10
15.080388
 20
4.213163
 10
15.080388
 20
5.510038
 10
13.583513
 20
5.510038
 10
13.583513
 20
4.213163
  0
LWPOLYLINE
  8
0
 62
7
 90
5
 70
1
 10
14.331950
 20
2.313162
 10
15.080388
 20
2.313162
 10
15.080388
 20
3.610037
 10
13.583513
 20
3.610037
 10
13.583513
 20
2.313162
  0
LWPOLYLINE
  8
0
 62
7
 90
5
 70
1
 10
11.715750
 20
4.200463
 10
12.464187
 20
4.200463
 10
12.464187
 20
5.497338
 10
10.967313
 20
5.497338
 10
10.967313
 20
4.200463
  0
LWPOLYLINE
  8
0
 62
7
 90
5
 70
1
 10
11.715750
 20
2.300463
 10
12.464187
 20
2.300463
 10
12.464187
 20
3.597338
 10
10.967313
 20
3.597338
 10
10.967313
 20
2.300463
  0
LWPOLYLINE
  8
0
 62
7
 90
5
 70
1
 10
86.244062
 20
65.722500
 10
86.244062
 20
64.974063
 10
87.540937
 20
64.974063
 10
87.540937
 20
66.470937
 10
86.244062
 20
66.470937
  0
LWPOLYLINE
  8
0
 62
7
 90
5
 70
1
 10
84.544062
 20
65.722500
 10
84.544062
 20
64.974063
 10
85.840937
 20
64.974063
 10
85.840937
 20
66.470937
 10
84.544062
 20
66.470937
  0
LWPOLYLINE
  8
0
 62
7
 90
5
 70
1
 10
82.434062
 20
71.755000
 10
82.434062
 20
71.006563
 10
83.730937
 20
71.006563
 10
83.730937
 20
72.503437
 10
82.434062
 20
72.503437
  0
LWPOLYLINE
  8
0
 62
7
 90
5
 70
1
 10
80.734062
 20
71.755000
 10
80.734062
 20
71.006563
 10
82.030937
 20
71.006563
 10
82.030937
 20
72.503437
 10
80.734062
 20
72.503437
  0
LWPOLYLINE
  8
0
 62
7
 90
5
 70
1
 10
78.740000
 20
97.039062
 10
79.488437
 20
97.039062
 10
79.488437
 20
98.335938
 10
77.991563
 20
98.335938
 10
77.991563
 20
97.039062
  0
LWPOLYLINE
  8
0
 62
7
 90
5
 70
1
 10
78.740000
 20
95.339062
 10
79.488437
 20
95.339062
 10
79.488437
 20
96.635937
 10
77.991563
 20
96.635937
 10
77.991563
 20
95.339062
  0
LWPOLYLINE
  8
0
 62
7
 90
5
 70
1
 10
83.820000
 20
96.721563
 10
84.568437
 20
96.721563
 10
84.568437
 20
98.018438
 10
83.071562
 20
98.018438
 10
83.071562
 20
96.721563
  0
LWPOLYLINE
  8
0
 62
7
 90
5
 70
1
 10
83.820000
 20
95.021563
 10
84.568437
 20
95.021563
 10
84.568437
 20
96.318438
 10
83.071562
 20
96.318438
 10
83.071562
 20
95.021563
  0
LWPOLYLINE
  8
0
 62
7
 90
5
 70
1
 10
86.677500
 20
96.721563
 10
87.425937
 20
96.721563
 10
87.425937
 20
98.018438
 10
85.929063
 20
98.018438
 10
85.929063
 20
96.721563
  0
LWPOLYLINE
  8
0
 62
7
 90
5
 70
1
 10
86.677500
 20
95.021563
 10
87.425937
 20
95.021563
 10
87.425937
 20
96.318438
 10
85.929063
 20
96.318438
 10
85.929063
 20
95.021563
  0
LWPOLYLINE
  8
0
 62
7
 90
5
 70
1
 10
7.937500
 20
70.918437
 10
7.189063
 20
70.918437
 10
7.189063
 20
69.621562
 10
8.685937
 20
69.621562
 10
8.685937
 20
70.918437
  0
LWPOLYLINE
  8
0
 62
7
 90
5
 70
1
 10
7.937500
 20
72.618437
 10
7.189063
 20
72.618437
 10
7.189063
 20
71.321562
 10
8.685937
 20
71.321562
 10
8.685937
 20
72.618437
  0
LWPOLYLINE
  8
0
 62
7
 90
5
 70
1
 10
16.308438
 20
91.122500
 10
16.308438
 20
91.870937
 10
15.011563
 20
91.870937
 10
15.011563
 20
90.374063
 10
16.308438
 20
90.374063
  0
LWPOLYLINE
  8
0
 62
7
 90
5
 70
1
 10
18.008437
 20
91.122500
 10
18.008437
 20
91.870937
 10
16.711562
 20
91.870937
 10
16.711562
 20
90.374063
 10
18.008437
 20
90.374063
  0
LWPOLYLINE
  8
0
 62
7
 90
5
 70
1
 10
33.539062
 20
91.122500
 10
33.539062
 20
90.374063
 10
34.835938
 20
90.374063
 10
34.835938
 20
91.870937
 10
33.539062
 20
91.870937
  0
LWPOLYLINE
  8
0
 62
7
 90
5
 70
1
 10
31.839062
 20
91.122500
 10
31.839062
 20
90.374063
 10
33.135937
 20
90.374063
 10
33.135937
 20
91.870937
 10
31.839062
 20
91.870937
  0
LWPOLYLINE
  8
0
 62
7
 90
5
 70
1
 10
66.473438
 20
91.122500
 10
66.473438
 20
91.870937
 10
65.176563
 20
91.870937
 10
65.176563
 20
90.374063
 10
66.473438
 20
90.374063
  0
LWPOLYLINE
  8
0
 62
7
 90
5
 70
1
 10
68.173438
 20
91.122500
 10
68.173438
 20
91.870937
 10
66.876563
 20
91.870937
 10
66.876563
 20
90.374063
 10
68.173438
 20
90.374063
  0
LWPOLYLINE
  8
0
 62
7
 90
5
 70
1
 10
97.155000
 20
113.866563
 10
97.903437
 20
113.866563
 10
97.903437
 20
115.163438
 10
96.406563
 20
115.163438
 10
96.406563
 20
113.866563
  0
LWPOLYLINE
  8
0
 62
7
 90
5
 70
1
 10
97.155000
 20
112.166562
 10
97.903437
 20
112.166562
 10
97.903437
 20
113.463437
 10
96.406563
 20
113.463437
 10
96.406563
 20
112.166562
  0
LWPOLYLINE
  8
0
 62
7
 90
5
 70
1
 10
49.010937
 20
91.122500
 10
49.010937
 20
91.870937
 10
47.714062
 20
91.870937
 10
47.714062
 20
90.374063
 10
49.010937
 20
90.374063
  0
LWPOLYLINE
  8
0
 62
7
 90
5
 70
1
 10
50.710938
 20
91.122500
 10
50.710938
 20
91.870937
 10
49.414062
 20
91.870937
 10
49.414062
 20
90.374063
 10
50.710938
 20
90.374063
  0
LWPOLYLINE
  8
0
 62
7
 90
5
 70
1
 10
131.905313
 20
132.873750
 10
131.905313
 20
132.125313
 10
133.202188
 20
132.125313
 10
133.202188
 20
133.622187
 10
131.905313
 20
133.622187
  0
LWPOLYLINE
  8
0
 62
7
 90
5
 70
1
 10
130.005313
 20
132.873750
 10
130.005313
 20
132.125313
 10
131.302188
 20
132.125313
 10
131.302188
 20
133.622187
 10
130.005313
 20
133.622187
  0
LWPOLYLINE
  8
0
 62
7
 90
5
 70
1
 10
131.905313
 20
64.135000
 10
131.905313
 20
63.386563
 10
133.202188
 20
63.386563
 10
133.202188
 20
64.883437
 10
131.905313
 20
64.883437
  0
LWPOLYLINE
  8
0
 62
7
 90
5
 70
1
 10
130.005313
 20
64.135000
 10
130.005313
 20
63.386563
 10
131.302188
 20
63.386563
 10
131.302188
 20
64.883437
 10
130.005313
 20
64.883437
  0
LWPOLYLINE
  8
0
 62
7
 90
5
 70
1
 10
131.905313
 20
87.312500
 10
131.905313
 20
86.564063
 10
133.202188
 20
86.564063
 10
133.202188
 20
88.060937
 10
131.905313
 20
88.060937
  0
LWPOLYLINE
  8
0
 62
7
 90
5
 70
1
 10
130.005313
 20
87.312500
 10
130.005313
 20
86.564063
 10
131.302188
 20
86.564063
 10
131.302188
 20
88.060937
 10
130.005313
 20
88.060937
  0
LWPOLYLINE
  8
0
 62
7
 90
5
 70
1
 10
131.905313
 20
110.172500
 10
131.905313
 20
109.424063
 10
133.202188
 20
109.424063
 10
133.202188
 20
110.920937
 10
131.905313
 20
110.920937
  0
LWPOLYLINE
  8
0
 62
7
 90
5
 70
1
 10
130.005313
 20
110.172500
 10
130.005313
 20
109.424063
 10
131.302188
 20
109.424063
 10
131.302188
 20
110.920937
 10
130.005313
 20
110.920937
  0
LWPOLYLINE
  8
0
 62
7
 90
5
 70
1
 10
92.919550
 20
145.603938
 10
92.121013
 20
145.603938
 10
92.121013
 20
144.438662
 10
93.718087
 20
144.438662
 10
93.718087
 20
145.603938
  0
LWPOLYLINE
  8
0
 62
7
 90
5
 70
1
 10
92.919550
 20
147.127938
 10
92.121013
 20
147.127938
 10
92.121013
 20
145.962662
 10
93.718087
 20
145.962662
 10
93.718087
 20
147.127938
  0
LWPOLYLINE
  8
0
 62
7
 90
5
 70
1
 10
2.360638
 20
85.090000
 10
2.360638
 20
85.888537
 10
1.195362
 20
85.888537
 10
1.195362
 20
84.291463
 10
2.360638
 20
84.291463
  0
LWPOLYLINE
  8
0
 62
7
 90
5
 70
1
 10
3.884638
 20
85.090000
 10
3.884638
 20
85.888537
 10
2.719362
 20
85.888537
 10
2.719362
 20
84.291463
 10
3.884638
 20
84.291463
  0
LWPOLYLINE
  8
0
 62
7
 90
5
 70
1
 10
2.360638
 20
87.630000
 10
2.360638
 20
88.428537
 10
1.195362
 20
88.428537
 10
1.195362
 20
86.831463
 10
2.360638
 20
86.831463
  0
LWPOLYLINE
  8
0
 62
7
 90
5
 70
1
 10
3.884638
 20
87.630000
 10
3.884638
 20
88.428537
 10
2.719362
 20
88.428537
 10
2.719362
 20
86.831463
 10
3.884638
 20
86.831463
  0
LWPOLYLINE
  8
0
 62
7
 90
5
 70
1
 10
2.360638
 20
90.170000
 10
2.360638
 20
90.968537
 10
1.195362
 20
90.968537
 10
1.195362
 20
89.371463
 10
2.360638
 20
89.371463
  0
LWPOLYLINE
  8
0
 62
7
 90
5
 70
1
 10
3.884638
 20
90.170000
 10
3.884638
 20
90.968537
 10
2.719362
 20
90.968537
 10
2.719362
 20
89.371463
 10
3.884638
 20
89.371463
  0
LWPOLYLINE
  8
0
 62
7
 90
5
 70
1
 10
90.728800
 20
145.610287
 10
89.930263
 20
145.610287
 10
89.930263
 20
144.445012
 10
91.527338
 20
144.445012
 10
91.527338
 20
145.610287
  0
LWPOLYLINE
  8
0
 62
7
 90
5
 70
1
 10
90.728800
 20
147.134287
 10
89.930263
 20
147.134287
 10
89.930263
 20
145.969012
 10
91.527338
 20
145.969012
 10
91.527338
 20
147.134287
  0
LWPOLYLINE
  8
0
 62
7
 90
5
 70
1
 10
88.550750
 20
145.635688
 10
87.752212
 20
145.635688
 10
87.752212
 20
144.470413
 10
89.349287
 20
144.470413
 10
89.349287
 20
145.635688
  0
LWPOLYLINE
  8
0
 62
7
 90
5
 70
1
 10
88.550750
 20
147.159688
 10
87.752212
 20
147.159688
 10
87.752212
 20
145.994413
 10
89.349287
 20
145.994413
 10
89.349287
 20
147.159688
  0
LWPOLYLINE
  8
0
 62
7
 90
5
 70
1
 10
63.798437
 20
88.050000
 10
63.798437
 20
89.148438
 10
63.201563
 20
89.148438
 10
63.201563
 20
86.951562
 10
63.798437
 20
86.951562
  0
LWPOLYLINE
  8
0
 62
7
 90
5
 70
1
 10
65.068438
 20
88.050000
 10
65.068438
 20
89.148438
 10
64.471562
 20
89.148438
 10
64.471562
 20
86.951562
 10
65.068438
 20
86.951562
  0
LWPOLYLINE
  8
0
 62
7
 90
5
 70
1
 10
66.338438
 20
88.050000
 10
66.338438
 20
89.148438
 10
65.741563
 20
89.148438
 10
65.741563
 20
86.951562
 10
66.338438
 20
86.951562
  0
LWPOLYLINE
  8
0
 62
7
 90
5
 70
1
 10
67.608438
 20
88.050000
 10
67.608438
 20
89.148438
 10
67.011562
 20
89.148438
 10
67.011562
 20
86.951562
 10
67.608438
 20
86.951562
  0
LWPOLYLINE
  8
0
 62
7
 90
5
 70
1
 10
68.878438
 20
88.050000
 10
68.878438
 20
89.148438
 10
68.281562
 20
89.148438
 10
68.281562
 20
86.951562
 10
68.878438
 20
86.951562
  0
LWPOLYLINE
  8
0
 62
7
 90
5
 70
1
 10
70.148438
 20
88.050000
 10
70.148438
 20
89.148438
 10
69.551562
 20
89.148438
 10
69.551562
 20
86.951562
 10
70.148438
 20
86.951562
  0
LWPOLYLINE
  8
0
 62
7
 90
5
 70
1
 10
71.418438
 20
88.050000
 10
71.418438
 20
89.148438
 10
70.821562
 20
89.148438
 10
70.821562
 20
86.951562
 10
71.418438
 20
86.951562
  0
LWPOLYLINE
  8
0
 62
7
 90
5
 70
1
 10
72.688438
 20
88.050000
 10
72.688438
 20
89.148438
 10
72.091562
 20
89.148438
 10
72.091562
 20
86.951562
 10
72.688438
 20
86.951562
  0
LWPOLYLINE
  8
0
 62
7
 90
5
 70
1
 10
73.958438
 20
88.050000
 10
73.958438
 20
89.148438
 10
73.361562
 20
89.148438
 10
73.361562
 20
86.951562
 10
73.958438
 20
86.951562
  0
LWPOLYLINE
  8
0
 62
7
 90
5
 70
1
 10
75.228438
 20
88.050000
 10
75.228438
 20
89.148438
 10
74.631563
 20
89.148438
 10
74.631563
 20
86.951562
 10
75.228438
 20
86.951562
  0
LWPOLYLINE
  8
0
 62
7
 90
5
 70
1
 10
76.498438
 20
88.050000
 10
76.498438
 20
89.148438
 10
75.901562
 20
89.148438
 10
75.901562
 20
86.951562
 10
76.498438
 20
86.951562
  0
LWPOLYLINE
  8
0
 62
7
 90
5
 70
1
 10
77.768438
 20
88.050000
 10
77.768438
 20
89.148438
 10
77.171562
 20
89.148438
 10
77.171562
 20
86.951562
 10
77.768438
 20
86.951562
  0
LWPOLYLINE
  8
0
 62
7
 90
5
 70
1
 10
79.038438
 20
88.050000
 10
79.038438
 20
89.148438
 10
78.441562
 20
89.148438
 10
78.441562
 20
86.951562
 10
79.038438
 20
86.951562
  0
LWPOLYLINE
  8
0
 62
7
 90
5
 70
1
 10
80.308438
 20
88.050000
 10
80.308438
 20
89.148438
 10
79.711562
 20
89.148438
 10
79.711562
 20
86.951562
 10
80.308438
 20
86.951562
  0
LWPOLYLINE
  8
0
 62
7
 90
5
 70
1
 10
80.308438
 20
77.050000
 10
80.308438
 20
78.148438
 10
79.711562
 20
78.148438
 10
79.711562
 20
75.951562
 10
80.308438
 20
75.951562
  0
LWPOLYLINE
  8
0
 62
7
 90
5
 70
1
 10
79.038438
 20
77.050000
 10
79.038438
 20
78.148438
 10
78.441562
 20
78.148438
 10
78.441562
 20
75.951562
 10
79.038438
 20
75.951562
  0
LWPOLYLINE
  8
0
 62
7
 90
5
 70
1
 10
77.768438
 20
77.050000
 10
77.768438
 20
78.148438
 10
77.171562
 20
78.148438
 10
77.171562
 20
75.951562
 10
77.768438
 20
75.951562
  0
LWPOLYLINE
  8
0
 62
7
 90
5
 70
1
 10
76.498438
 20
77.050000
 10
76.498438
 20
78.148438
 10
75.901562
 20
78.148438
 10
75.901562
 20
75.951562
 10
76.498438
 20
75.951562
  0
LWPOLYLINE
  8
0
 62
7
 90
5
 70
1
 10
75.228438
 20
77.050000
 10
75.228438
 20
78.148438
 10
74.631563
 20
78.148438
 10
74.631563
 20
75.951562
 10
75.228438
 20
75.951562
  0
LWPOLYLINE
  8
0
 62
7
 90
5
 70
1
 10
73.958438
 20
77.050000
 10
73.958438
 20
78.148438
 10
73.361562
 20
78.148438
 10
73.361562
 20
75.951562
 10
73.958438
 20
75.951562
  0
LWPOLYLINE
  8
0
 62
7
 90
5
 70
1
 10
72.688438
 20
77.050000
 10
72.688438
 20
78.148438
 10
72.091562
 20
78.148438
 10
72.091562
 20
75.951562
 10
72.688438
 20
75.951562
  0
LWPOLYLINE
  8
0
 62
7
 90
5
 70
1
 10
71.418438
 20
77.050000
 10
71.418438
 20
78.148438
 10
70.821562
 20
78.148438
 10
70.821562
 20
75.951562
 10
71.418438
 20
75.951562
  0
LWPOLYLINE
  8
0
 62
7
 90
5
 70
1
 10
70.148438
 20
77.050000
 10
70.148438
 20
78.148438
 10
69.551562
 20
78.148438
 10
69.551562
 20
75.951562
 10
70.148438
 20
75.951562
  0
LWPOLYLINE
  8
0
 62
7
 90
5
 70
1
 10
68.878438
 20
77.050000
 10
68.878438
 20
78.148438
 10
68.281562
 20
78.148438
 10
68.281562
 20
75.951562
 10
68.878438
 20
75.951562
  0
LWPOLYLINE
  8
0
 62
7
 90
5
 70
1
 10
67.608438
 20
77.050000
 10
67.608438
 20
78.148438
 10
67.011562
 20
78.148438
 10
67.011562
 20
75.951562
 10
67.608438
 20
75.951562
  0
LWPOLYLINE
  8
0
 62
7
 90
5
 70
1
 10
66.338438
 20
77.050000
 10
66.338438
 20
78.148438
 10
65.741563
 20
78.148438
 10
65.741563
 20
75.951562
 10
66.338438
 20
75.951562
  0
LWPOLYLINE
  8
0
 62
7
 90
5
 70
1
 10
65.068438
 20
77.050000
 10
65.068438
 20
78.148438
 10
64.471562
 20
78.148438
 10
64.471562
 20
75.951562
 10
65.068438
 20
75.951562
  0
LWPOLYLINE
  8
0
 62
7
 90
5
 70
1
 10
63.798437
 20
77.050000
 10
63.798437
 20
78.148438
 10
63.201563
 20
78.148438
 10
63.201563
 20
75.951562
 10
63.798437
 20
75.951562
  0
LWPOLYLINE
  8
0
 62
7
 90
5
 70
1
 10
18.837412
 20
18.719300
 10
18.837412
 20
18.470862
 10
20.334288
 20
18.470862
 10
20.334288
 20
18.967738
 10
18.837412
 20
18.967738
  0
LWPOLYLINE
  8
0
 62
7
 90
5
 70
1
 10
18.837412
 20
17.919300
 10
18.837412
 20
17.670862
 10
20.334288
 20
17.670862
 10
20.334288
 20
18.167738
 10
18.837412
 20
18.167738
  0
LWPOLYLINE
  8
0
 62
7
 90
5
 70
1
 10
18.837412
 20
17.119300
 10
18.837412
 20
16.870862
 10
20.334288
 20
16.870862
 10
20.334288
 20
17.367738
 10
18.837412
 20
17.367738
  0
LWPOLYLINE
  8
0
 62
7
 90
5
 70
1
 10
18.837412
 20
16.319300
 10
18.837412
 20
16.070862
 10
20.334288
 20
16.070862
 10
20.334288
 20
16.567737
 10
18.837412
 20
16.567737
  0
LWPOLYLINE
  8
0
 62
7
 90
5
 70
1
 10
18.837412
 20
15.519300
 10
18.837412
 20
15.270862
 10
20.334288
 20
15.270862
 10
20.334288
 20
15.767737
 10
18.837412
 20
15.767737
  0
LWPOLYLINE
  8
0
 62
7
 90
5
 70
1
 10
18.837412
 20
14.719300
 10
18.837412
 20
14.470863
 10
20.334288
 20
14.470863
 10
20.334288
 20
14.967738
 10
18.837412
 20
14.967738
  0
LWPOLYLINE
  8
0
 62
7
 90
5
 70
1
 10
18.837412
 20
13.919300
 10
18.837412
 20
13.670863
 10
20.334288
 20
13.670863
 10
20.334288
 20
14.167737
 10
18.837412
 20
14.167737
  0
LWPOLYLINE
  8
0
 62
7
 90
5
 70
1
 10
18.837412
 20
13.119300
 10
18.837412
 20
12.870863
 10
20.334288
 20
12.870863
 10
20.334288
 20
13.367738
 10
18.837412
 20
13.367738
  0
LWPOLYLINE
  8
0
 62
7
 90
5
 70
1
 10
18.837412
 20
12.319300
 10
18.837412
 20
12.070863
 10
20.334288
 20
12.070863
 10
20.334288
 20
12.567737
 10
18.837412
 20
12.567737
  0
LWPOLYLINE
  8
0
 62
7
 90
5
 70
1
 10
18.837412
 20
11.519300
 10
18.837412
 20
11.270862
 10
20.334288
 20
11.270862
 10
20.334288
 20
11.767737
 10
18.837412
 20
11.767737
  0
LWPOLYLINE
  8
0
 62
7
 90
5
 70
1
 10
18.837412
 20
10.719300
 10
18.837412
 20
10.470863
 10
20.334288
 20
10.470863
 10
20.334288
 20
10.967738
 10
18.837412
 20
10.967738
  0
LWPOLYLINE
  8
0
 62
7
 90
5
 70
1
 10
17.537412
 20
8.919300
 10
17.537412
 20
8.170863
 10
18.034288
 20
8.170863
 10
18.034288
 20
9.667737
 10
17.537412
 20
9.667737
  0
LWPOLYLINE
  8
0
 62
7
 90
5
 70
1
 10
16.737412
 20
8.919300
 10
16.737412
 20
8.170863
 10
17.234288
 20
8.170863
 10
17.234288
 20
9.667737
 10
16.737412
 20
9.667737
  0
LWPOLYLINE
  8
0
 62
7
 90
5
 70
1
 10
15.937412
 20
8.919300
 10
15.937412
 20
8.170863
 10
16.434287
 20
8.170863
 10
16.434287
 20
9.667737
 10
15.937412
 20
9.667737
  0
LWPOLYLINE
  8
0
 62
7
 90
5
 70
1
 10
15.137412
 20
8.919300
 10
15.137412
 20
8.170863
 10
15.634287
 20
8.170863
 10
15.634287
 20
9.667737
 10
15.137412
 20
9.667737
  0
LWPOLYLINE
  8
0
 62
7
 90
5
 70
1
 10
14.337413
 20
8.919300
 10
14.337413
 20
8.170863
 10
14.834288
 20
8.170863
 10
14.834288
 20
9.667737
 10
14.337413
 20
9.667737
  0
LWPOLYLINE
  8
0
 62
7
 90
5
 70
1
 10
13.537413
 20
8.919300
 10
13.537413
 20
8.170863
 10
14.034287
 20
8.170863
 10
14.034287
 20
9.667737
 10
13.537413
 20
9.667737
  0
LWPOLYLINE
  8
0
 62
7
 90
5
 70
1
 10
12.737412
 20
8.919300
 10
12.737412
 20
8.170863
 10
13.234287
 20
8.170863
 10
13.234287
 20
9.667737
 10
12.737412
 20
9.667737
  0
LWPOLYLINE
  8
0
 62
7
 90
5
 70
1
 10
11.937413
 20
8.919300
 10
11.937413
 20
8.170863
 10
12.434287
 20
8.170863
 10
12.434287
 20
9.667737
 10
11.937413
 20
9.667737
  0
LWPOLYLINE
  8
0
 62
7
 90
5
 70
1
 10
11.137412
 20
8.919300
 10
11.137412
 20
8.170863
 10
11.634287
 20
8.170863
 10
11.634287
 20
9.667737
 10
11.137412
 20
9.667737
  0
LWPOLYLINE
  8
0
 62
7
 90
5
 70
1
 10
10.337413
 20
8.919300
 10
10.337413
 20
8.170863
 10
10.834288
 20
8.170863
 10
10.834288
 20
9.667737
 10
10.337413
 20
9.667737
  0
LWPOLYLINE
  8
0
 62
7
 90
5
 70
1
 10
9.537413
 20
8.919300
 10
9.537413
 20
8.170863
 10
10.034287
 20
8.170863
 10
10.034287
 20
9.667737
 10
9.537413
 20
9.667737
  0
LWPOLYLINE
  8
0
 62
7
 90
5
 70
1
 10
7.237413
 20
10.719300
 10
7.237413
 20
10.470863
 10
8.734288
 20
10.470863
 10
8.734288
 20
10.967738
 10
7.237413
 20
10.967738
  0
LWPOLYLINE
  8
0
 62
7
 90
5
 70
1
 10
7.237413
 20
11.519300
 10
7.237413
 20
11.270862
 10
8.734288
 20
11.270862
 10
8.734288
 20
11.767737
 10
7.237413
 20
11.767737
  0
LWPOLYLINE
  8
0
 62
7
 90
5
 70
1
 10
7.237413
 20
12.319300
 10
7.237413
 20
12.070863
 10
8.734288
 20
12.070863
 10
8.734288
 20
12.567737
 10
7.237413
 20
12.567737
  0
LWPOLYLINE
  8
0
 62
7
 90
5
 70
1
 10
7.237413
 20
13.119300
 10
7.237413
 20
12.870863
 10
8.734288
 20
12.870863
 10
8.734288
 20
13.367738
 10
7.237413
 20
13.367738
  0
LWPOLYLINE
  8
0
 62
7
 90
5
 70
1
 10
7.237413
 20
13.919300
 10
7.237413
 20
13.670863
 10
8.734288
 20
13.670863
 10
8.734288
 20
14.167737
 10
7.237413
 20
14.167737
  0
LWPOLYLINE
  8
0
 62
7
 90
5
 70
1
 10
7.237413
 20
14.719300
 10
7.237413
 20
14.470863
 10
8.734288
 20
14.470863
 10
8.734288
 20
14.967738
 10
7.237413
 20
14.967738
  0
LWPOLYLINE
  8
0
 62
7
 90
5
 70
1
 10
7.237413
 20
15.519300
 10
7.237413
 20
15.270862
 10
8.734288
 20
15.270862
 10
8.734288
 20
15.767737
 10
7.237413
 20
15.767737
  0
LWPOLYLINE
  8
0
 62
7
 90
5
 70
1
 10
7.237413
 20
16.319300
 10
7.237413
 20
16.070862
 10
8.734288
 20
16.070862
 10
8.734288
 20
16.567737
 10
7.237413
 20
16.567737
  0
LWPOLYLINE
  8
0
 62
7
 90
5
 70
1
 10
7.237413
 20
17.119300
 10
7.237413
 20
16.870862
 10
8.734288
 20
16.870862
 10
8.734288
 20
17.367738
 10
7.237413
 20
17.367738
  0
LWPOLYLINE
  8
0
 62
7
 90
5
 70
1
 10
7.237413
 20
17.919300
 10
7.237413
 20
17.670862
 10
8.734288
 20
17.670862
 10
8.734288
 20
18.167738
 10
7.237413
 20
18.167738
  0
LWPOLYLINE
  8
0
 62
7
 90
5
 70
1
 10
7.237413
 20
18.719300
 10
7.237413
 20
18.470862
 10
8.734288
 20
18.470862
 10
8.734288
 20
18.967738
 10
7.237413
 20
18.967738
  0
LWPOLYLINE
  8
0
 62
7
 90
5
 70
1
 10
9.537413
 20
20.519300
 10
9.537413
 20
19.770862
 10
10.034287
 20
19.770862
 10
10.034287
 20
21.267738
 10
9.537413
 20
21.267738
  0
LWPOLYLINE
  8
0
 62
7
 90
5
 70
1
 10
10.337413
 20
20.519300
 10
10.337413
 20
19.770862
 10
10.834288
 20
19.770862
 10
10.834288
 20
21.267738
 10
10.337413
 20
21.267738
  0
LWPOLYLINE
  8
0
 62
7
 90
5
 70
1
 10
11.137412
 20
20.519300
 10
11.137412
 20
19.770862
 10
11.634287
 20
19.770862
 10
11.634287
 20
21.267738
 10
11.137412
 20
21.267738
  0
LWPOLYLINE
  8
0
 62
7
 90
5
 70
1
 10
11.937413
 20
20.519300
 10
11.937413
 20
19.770862
 10
12.434287
 20
19.770862
 10
12.434287
 20
21.267738
 10
11.937413
 20
21.267738
  0
LWPOLYLINE
  8
0
 62
7
 90
5
 70
1
 10
12.737412
 20
20.519300
 10
12.737412
 20
19.770862
 10
13.234287
 20
19.770862
 10
13.234287
 20
21.267738
 10
12.737412
 20
21.267738
  0
LWPOLYLINE
  8
0
 62
7
 90
5
 70
1
 10
13.537413
 20
20.519300
 10
13.537413
 20
19.770862
 10
14.034287
 20
19.770862
 10
14.034287
 20
21.267738
 10
13.537413
 20
21.267738
  0
LWPOLYLINE
  8
0
 62
7
 90
5
 70
1
 10
14.337413
 20
20.519300
 10
14.337413
 20
19.770862
 10
14.834288
 20
19.770862
 10
14.834288
 20
21.267738
 10
14.337413
 20
21.267738
  0
LWPOLYLINE
  8
0
 62
7
 90
5
 70
1
 10
15.137412
 20
20.519300
 10
15.137412
 20
19.770862
 10
15.634287
 20
19.770862
 10
15.634287
 20
21.267738
 10
15.137412
 20
21.267738
  0
LWPOLYLINE
  8
0
 62
7
 90
5
 70
1
 10
15.937412
 20
20.519300
 10
15.937412
 20
19.770862
 10
16.434287
 20
19.770862
 10
16.434287
 20
21.267738
 10
15.937412
 20
21.267738
  0
LWPOLYLINE
  8
0
 62
7
 90
5
 70
1
 10
16.737412
 20
20.519300
 10
16.737412
 20
19.770862
 10
17.234288
 20
19.770862
 10
17.234288
 20
21.267738
 10
16.737412
 20
21.267738
  0
LWPOLYLINE
  8
0
 62
7
 90
5
 70
1
 10
17.537412
 20
20.519300
 10
17.537412
 20
19.770862
 10
18.034288
 20
19.770862
 10
18.034288
 20
21.267738
 10
17.537412
 20
21.267738
  0
LWPOLYLINE
  8
0
 62
7
 90
5
 70
1
 10
17.520788
 20
17.184300
 10
17.520788
 20
17.332738
 10
16.723913
 20
17.332738
 10
16.723913
 20
17.035863
 10
17.520788
 20
17.035863
  0
LWPOLYLINE
  8
0
 62
7
 90
5
 70
1
 10
17.520788
 20
16.691300
 10
17.520788
 20
16.839737
 10
16.723913
 20
16.839737
 10
16.723913
 20
16.542862
 10
17.520788
 20
16.542862
  0
LWPOLYLINE
  8
0
 62
7
 90
5
 70
1
 10
17.520788
 20
16.198300
 10
17.520788
 20
16.346737
 10
16.723913
 20
16.346737
 10
16.723913
 20
16.049862
 10
17.520788
 20
16.049862
  0
LWPOLYLINE
  8
0
 62
7
 90
5
 70
1
 10
17.520788
 20
15.705300
 10
17.520788
 20
15.853737
 10
16.723913
 20
15.853737
 10
16.723913
 20
15.556862
 10
17.520788
 20
15.556862
  0
LWPOLYLINE
  8
0
 62
7
 90
5
 70
1
 10
17.520788
 20
15.212300
 10
17.520788
 20
15.360738
 10
16.723913
 20
15.360738
 10
16.723913
 20
15.063863
 10
17.520788
 20
15.063863
  0
LWPOLYLINE
  8
0
 62
7
 90
5
 70
1
 10
17.520788
 20
14.719300
 10
17.520788
 20
14.867738
 10
16.723913
 20
14.867738
 10
16.723913
 20
14.570863
 10
17.520788
 20
14.570863
  0
LWPOLYLINE
  8
0
 62
7
 90
5
 70
1
 10
16.723913
 20
14.226300
 10
16.723913
 20
14.077863
 10
17.520788
 20
14.077863
 10
17.520788
 20
14.374738
 10
16.723913
 20
14.374738
  0
LWPOLYLINE
  8
0
 62
7
 90
5
 70
1
 10
16.723913
 20
13.733300
 10
16.723913
 20
13.584862
 10
17.520788
 20
13.584862
 10
17.520788
 20
13.881737
 10
16.723913
 20
13.881737
  0
LWPOLYLINE
  8
0
 62
7
 90
5
 70
1
 10
16.723913
 20
13.240300
 10
16.723913
 20
13.091862
 10
17.520788
 20
13.091862
 10
17.520788
 20
13.388737
 10
16.723913
 20
13.388737
  0
LWPOLYLINE
  8
0
 62
7
 90
5
 70
1
 10
16.723913
 20
12.747300
 10
16.723913
 20
12.598862
 10
17.520788
 20
12.598862
 10
17.520788
 20
12.895737
 10
16.723913
 20
12.895737
  0
LWPOLYLINE
  8
0
 62
7
 90
5
 70
1
 10
16.723913
 20
12.254300
 10
16.723913
 20
12.105863
 10
17.520788
 20
12.105863
 10
17.520788
 20
12.402738
 10
16.723913
 20
12.402738
  0
LWPOLYLINE
  8
0
 62
7
 90
5
 70
1
 10
16.250850
 20
10.984362
 10
16.399287
 20
10.984362
 10
16.399287
 20
11.781237
 10
16.102412
 20
11.781237
 10
16.102412
 20
10.984362
  0
LWPOLYLINE
  8
0
 62
7
 90
5
 70
1
 10
15.757850
 20
10.984362
 10
15.906287
 20
10.984362
 10
15.906287
 20
11.781237
 10
15.609412
 20
11.781237
 10
15.609412
 20
10.984362
  0
LWPOLYLINE
  8
0
 62
7
 90
5
 70
1
 10
15.264850
 20
10.984362
 10
15.413287
 20
10.984362
 10
15.413287
 20
11.781237
 10
15.116412
 20
11.781237
 10
15.116412
 20
10.984362
  0
LWPOLYLINE
  8
0
 62
7
 90
5
 70
1
 10
14.771850
 20
10.984362
 10
14.920288
 20
10.984362
 10
14.920288
 20
11.781237
 10
14.623413
 20
11.781237
 10
14.623413
 20
10.984362
  0
LWPOLYLINE
  8
0
 62
7
 90
5
 70
1
 10
14.278850
 20
10.984362
 10
14.427288
 20
10.984362
 10
14.427288
 20
11.781237
 10
14.130413
 20
11.781237
 10
14.130413
 20
10.984362
  0
LWPOLYLINE
  8
0
 62
7
 90
5
 70
1
 10
13.785850
 20
10.984362
 10
13.934287
 20
10.984362
 10
13.934287
 20
11.781237
 10
13.637412
 20
11.781237
 10
13.637412
 20
10.984362
  0
LWPOLYLINE
  8
0
 62
7
 90
5
 70
1
 10
13.292850
 20
11.781237
 10
13.144412
 20
11.781237
 10
13.144412
 20
10.984362
 10
13.441287
 20
10.984362
 10
13.441287
 20
11.781237
  0
LWPOLYLINE
  8
0
 62
7
 90
5
 70
1
 10
12.799850
 20
11.781237
 10
12.651412
 20
11.781237
 10
12.651412
 20
10.984362
 10
12.948287
 20
10.984362
 10
12.948287
 20
11.781237
  0
LWPOLYLINE
  8
0
 62
7
 90
5
 70
1
 10
12.306850
 20
11.781237
 10
12.158413
 20
11.781237
 10
12.158413
 20
10.984362
 10
12.455288
 20
10.984362
 10
12.455288
 20
11.781237
  0
LWPOLYLINE
  8
0
 62
7
 90
5
 70
1
 10
11.813850
 20
11.781237
 10
11.665413
 20
11.781237
 10
11.665413
 20
10.984362
 10
11.962288
 20
10.984362
 10
11.962288
 20
11.781237
  0
LWPOLYLINE
  8
0
 62
7
 90
5
 70
1
 10
11.320850
 20
11.781237
 10
11.172413
 20
11.781237
 10
11.172413
 20
10.984362
 10
11.469288
 20
10.984362
 10
11.469288
 20
11.781237
  0
LWPOLYLINE
  8
0
 62
7
 90
5
 70
1
 10
10.050913
 20
12.254300
 10
10.050913
 20
12.105863
 10
10.847788
 20
12.105863
 10
10.847788
 20
12.402738
 10
10.050913
 20
12.402738
  0
LWPOLYLINE
  8
0
 62
7
 90
5
 70
1
 10
10.050913
 20
12.747300
 10
10.050913
 20
12.598862
 10
10.847788
 20
12.598862
 10
10.847788
 20
12.895737
 10
10.050913
 20
12.895737
  0
LWPOLYLINE
  8
0
 62
7
 90
5
 70
1
 10
10.050913
 20
13.240300
 10
10.050913
 20
13.091862
 10
10.847788
 20
13.091862
 10
10.847788
 20
13.388737
 10
10.050913
 20
13.388737
  0
LWPOLYLINE
  8
0
 62
7
 90
5
 70
1
 10
10.050913
 20
13.733300
 10
10.050913
 20
13.584862
 10
10.847788
 20
13.584862
 10
10.847788
 20
13.881737
 10
10.050913
 20
13.881737
  0
LWPOLYLINE
  8
0
 62
7
 90
5
 70
1
 10
10.050913
 20
14.226300
 10
10.050913
 20
14.077863
 10
10.847788
 20
14.077863
 10
10.847788
 20
14.374738
 10
10.050913
 20
14.374738
  0
LWPOLYLINE
  8
0
 62
7
 90
5
 70
1
 10
10.050913
 20
14.719300
 10
10.050913
 20
14.570863
 10
10.847788
 20
14.570863
 10
10.847788
 20
14.867738
 10
10.050913
 20
14.867738
  0
LWPOLYLINE
  8
0
 62
7
 90
5
 70
1
 10
10.847788
 20
15.212300
 10
10.847788
 20
15.360738
 10
10.050913
 20
15.360738
 10
10.050913
 20
15.063863
 10
10.847788
 20
15.063863
  0
LWPOLYLINE
  8
0
 62
7
 90
5
 70
1
 10
10.847788
 20
15.705300
 10
10.847788
 20
15.853737
 10
10.050913
 20
15.853737
 10
10.050913
 20
15.556862
 10
10.847788
 20
15.556862
  0
LWPOLYLINE
  8
0
 62
7
 90
5
 70
1
 10
10.847788
 20
16.198300
 10
10.847788
 20
16.346737
 10
10.050913
 20
16.346737
 10
10.050913
 20
16.049862
 10
10.847788
 20
16.049862
  0
LWPOLYLINE
  8
0
 62
7
 90
5
 70
1
 10
10.847788
 20
16.691300
 10
10.847788
 20
16.839737
 10
10.050913
 20
16.839737
 10
10.050913
 20
16.542862
 10
10.847788
 20
16.542862
  0
LWPOLYLINE
  8
0
 62
7
 90
5
 70
1
 10
10.847788
 20
17.184300
 10
10.847788
 20
17.332738
 10
10.050913
 20
17.332738
 10
10.050913
 20
17.035863
 10
10.847788
 20
17.035863
  0
LWPOLYLINE
  8
0
 62
7
 90
5
 70
1
 10
11.320850
 20
18.454238
 10
11.172413
 20
18.454238
 10
11.172413
 20
17.657363
 10
11.469288
 20
17.657363
 10
11.469288
 20
18.454238
  0
LWPOLYLINE
  8
0
 62
7
 90
5
 70
1
 10
11.813850
 20
18.454238
 10
11.665413
 20
18.454238
 10
11.665413
 20
17.657363
 10
11.962288
 20
17.657363
 10
11.962288
 20
18.454238
  0
LWPOLYLINE
  8
0
 62
7
 90
5
 70
1
 10
12.306850
 20
18.454238
 10
12.158413
 20
18.454238
 10
12.158413
 20
17.657363
 10
12.455288
 20
17.657363
 10
12.455288
 20
18.454238
  0
LWPOLYLINE
  8
0
 62
7
 90
5
 70
1
 10
12.799850
 20
18.454238
 10
12.651412
 20
18.454238
 10
12.651412
 20
17.657363
 10
12.948287
 20
17.657363
 10
12.948287
 20
18.454238
  0
LWPOLYLINE
  8
0
 62
7
 90
5
 70
1
 10
13.292850
 20
18.454238
 10
13.144412
 20
18.454238
 10
13.144412
 20
17.657363
 10
13.441287
 20
17.657363
 10
13.441287
 20
18.454238
  0
LWPOLYLINE
  8
0
 62
7
 90
5
 70
1
 10
13.785850
 20
18.454238
 10
13.637412
 20
18.454238
 10
13.637412
 20
17.657363
 10
13.934287
 20
17.657363
 10
13.934287
 20
18.454238
  0
LWPOLYLINE
  8
0
 62
7
 90
5
 70
1
 10
14.278850
 20
17.657363
 10
14.427288
 20
17.657363
 10
14.427288
 20
18.454238
 10
14.130413
 20
18.454238
 10
14.130413
 20
17.657363
  0
LWPOLYLINE
  8
0
 62
7
 90
5
 70
1
 10
14.771850
 20
17.657363
 10
14.920288
 20
17.657363
 10
14.920288
 20
18.454238
 10
14.623413
 20
18.454238
 10
14.623413
 20
17.657363
  0
LWPOLYLINE
  8
0
 62
7
 90
5
 70
1
 10
15.264850
 20
17.657363
 10
15.413287
 20
17.657363
 10
15.413287
 20
18.454238
 10
15.116412
 20
18.454238
 10
15.116412
 20
17.657363
  0
LWPOLYLINE
  8
0
 62
7
 90
5
 70
1
 10
15.757850
 20
17.657363
 10
15.906287
 20
17.657363
 10
15.906287
 20
18.454238
 10
15.609412
 20
18.454238
 10
15.609412
 20
17.657363
  0
LWPOLYLINE
  8
0
 62
7
 90
5
 70
1
 10
16.250850
 20
17.657363
 10
16.399287
 20
17.657363
 10
16.399287
 20
18.454238
 10
16.102412
 20
18.454238
 10
16.102412
 20
17.657363
  0
LWPOLYLINE
  8
0
 62
7
 90
5
 70
1
 10
96.621600
 20
144.508512
 10
96.899438
 20
144.508512
 10
96.899438
 20
146.791387
 10
96.343762
 20
146.791387
 10
96.343762
 20
144.508512
  0
LWPOLYLINE
  8
0
 62
7
 90
5
 70
1
 10
97.891600
 20
144.508512
 10
98.169438
 20
144.508512
 10
98.169438
 20
146.791387
 10
97.613762
 20
146.791387
 10
97.613762
 20
144.508512
  0
LWPOLYLINE
  8
0
 62
7
 90
5
 70
1
 10
99.161600
 20
144.508512
 10
99.439438
 20
144.508512
 10
99.439438
 20
146.791387
 10
98.883763
 20
146.791387
 10
98.883763
 20
144.508512
  0
LWPOLYLINE
  8
0
 62
7
 90
5
 70
1
 10
100.431600
 20
144.508512
 10
100.709438
 20
144.508512
 10
100.709438
 20
146.791387
 10
100.153762
 20
146.791387
 10
100.153762
 20
144.508512
  0
LWPOLYLINE
  8
0
 62
7
 90
5
 70
1
 10
101.701600
 20
144.508512
 10
101.979438
 20
144.508512
 10
101.979438
 20
146.791387
 10
101.423762
 20
146.791387
 10
101.423762
 20
144.508512
  0
LWPOLYLINE
  8
0
 62
7
 90
5
 70
1
 10
102.971600
 20
144.508512
 10
103.249437
 20
144.508512
 10
103.249437
 20
146.791387
 10
102.693762
 20
146.791387
 10
102.693762
 20
144.508512
  0
LWPOLYLINE
  8
0
 62
7
 90
5
 70
1
 10
104.241600
 20
144.508512
 10
104.519438
 20
144.508512
 10
104.519438
 20
146.791387
 10
103.963763
 20
146.791387
 10
103.963763
 20
144.508512
  0
LWPOLYLINE
  8
0
 62
7
 90
5
 70
1
 10
105.511600
 20
144.508512
 10
105.789438
 20
144.508512
 10
105.789438
 20
146.791387
 10
105.233762
 20
146.791387
 10
105.233762
 20
144.508512
  0
LWPOLYLINE
  8
0
 62
7
 90
5
 70
1
 10
105.511600
 20
135.466113
 10
105.789438
 20
135.466113
 10
105.789438
 20
137.748987
 10
105.233762
 20
137.748987
 10
105.233762
 20
135.466113
  0
LWPOLYLINE
  8
0
 62
7
 90
5
 70
1
 10
104.241600
 20
135.466113
 10
104.519438
 20
135.466113
 10
104.519438
 20
137.748987
 10
103.963763
 20
137.748987
 10
103.963763
 20
135.466113
  0
LWPOLYLINE
  8
0
 62
7
 90
5
 70
1
 10
102.971600
 20
135.466113
 10
103.249437
 20
135.466113
 10
103.249437
 20
137.748987
 10
102.693762
 20
137.748987
 10
102.693762
 20
135.466113
  0
LWPOLYLINE
  8
0
 62
7
 90
5
 70
1
 10
101.701600
 20
135.466113
 10
101.979438
 20
135.466113
 10
101.979438
 20
137.748987
 10
101.423762
 20
137.748987
 10
101.423762
 20
135.466113
  0
LWPOLYLINE
  8
0
 62
7
 90
5
 70
1
 10
100.431600
 20
135.466113
 10
100.709438
 20
135.466113
 10
100.709438
 20
137.748987
 10
100.153762
 20
137.748987
 10
100.153762
 20
135.466113
  0
LWPOLYLINE
  8
0
 62
7
 90
5
 70
1
 10
99.161600
 20
135.466113
 10
99.439438
 20
135.466113
 10
99.439438
 20
137.748987
 10
98.883763
 20
137.748987
 10
98.883763
 20
135.466113
  0
LWPOLYLINE
  8
0
 62
7
 90
5
 70
1
 10
97.891600
 20
135.466113
 10
98.169438
 20
135.466113
 10
98.169438
 20
137.748987
 10
97.613762
 20
137.748987
 10
97.613762
 20
135.466113
  0
LWPOLYLINE
  8
0
 62
7
 90
5
 70
1
 10
96.621600
 20
135.466113
 10
96.899438
 20
135.466113
 10
96.899438
 20
137.748987
 10
96.343762
 20
137.748987
 10
96.343762
 20
135.466113
  0
LWPOLYLINE
  8
0
 62
7
 90
5
 70
1
 10
5.085200
 20
39.895463
 10
5.783638
 20
39.895463
 10
5.783638
 20
40.292337
 10
4.386763
 20
40.292337
 10
4.386763
 20
39.895463
  0
LWPOLYLINE
  8
0
 62
7
 90
5
 70
1
 10
5.085200
 20
39.245463
 10
5.783638
 20
39.245463
 10
5.783638
 20
39.642337
 10
4.386763
 20
39.642337
 10
4.386763
 20
39.245463
  0
LWPOLYLINE
  8
0
 62
7
 90
5
 70
1
 10
5.085200
 20
41.195463
 10
5.783638
 20
41.195463
 10
5.783638
 20
41.592337
 10
4.386763
 20
41.592337
 10
4.386763
 20
41.195463
  0
LWPOLYLINE
  8
0
 62
7
 90
5
 70
1
 10
5.085200
 20
40.545462
 10
5.783638
 20
40.545462
 10
5.783638
 20
40.942337
 10
4.386763
 20
40.942337
 10
4.386763
 20
40.545462
  0
LWPOLYLINE
  8
0
 62
7
 90
5
 70
1
 10
2.235200
 20
37.845462
 10
3.183637
 20
37.845462
 10
3.183637
 20
39.842337
 10
1.286763
 20
39.842337
 10
1.286763
 20
37.845462
  0
LWPOLYLINE
  8
0
 62
7
 90
5
 70
1
 10
2.235200
 20
40.345462
 10
3.183637
 20
40.345462
 10
3.183637
 20
42.342337
 10
1.286763
 20
42.342337
 10
1.286763
 20
40.345462
  0
LWPOLYLINE
  8
0
 62
7
 90
5
 70
1
 10
2.235200
 20
34.995462
 10
3.183637
 20
34.995462
 10
3.183637
 20
37.192338
 10
1.286763
 20
37.192338
 10
1.286763
 20
34.995462
  0
LWPOLYLINE
  8
0
 62
7
 90
5
 70
1
 10
2.235200
 20
42.995462
 10
3.183637
 20
42.995462
 10
3.183637
 20
45.192338
 10
1.286763
 20
45.192338
 10
1.286763
 20
42.995462
  0
LWPOLYLINE
  8
0
 62
7
 90
5
 70
1
 10
5.085200
 20
38.595463
 10
5.783638
 20
38.595463
 10
5.783638
 20
38.992337
 10
4.386763
 20
38.992337
 10
4.386763
 20
38.595463
  0
LWPOLYLINE
  8
0
 62
7
 90
5
 70
1
 10
27.000062
 20
2.012300
 10
27.000062
 20
1.463863
 10
28.896937
 20
1.463863
 10
28.896937
 20
2.560738
 10
27.000062
 20
2.560738
  0
LWPOLYLINE
  8
0
 62
7
 90
5
 70
1
 10
23.300062
 20
2.012300
 10
23.300062
 20
1.463863
 10
25.196938
 20
1.463863
 10
25.196938
 20
2.560738
 10
23.300062
 20
2.560738
  0
LWPOLYLINE
  8
0
 62
7
 90
5
 70
1
 10
23.300062
 20
4.312300
 10
23.300062
 20
3.763862
 10
25.196938
 20
3.763862
 10
25.196938
 20
4.860737
 10
23.300062
 20
4.860737
  0
LWPOLYLINE
  8
0
 62
7
 90
5
 70
1
 10
27.000062
 20
4.312300
 10
27.000062
 20
3.763862
 10
28.896937
 20
3.763862
 10
28.896937
 20
4.860737
 10
27.000062
 20
4.860737
  0
ENDSEC
  0
EOF
